<svg width="37" height="37" viewBox="0 0 37 37" fill="none" xmlns="http://www.w3.org/2000/svg">
<path d="M25.5727 21.8345C25.4265 21.9806 25.2266 22.0729 24.9958 22.0729C24.5498 22.0729 24.1806 21.7038 24.1806 21.2577L24.1806 12.7361L15.659 12.7361C15.213 12.7361 14.8438 12.367 14.8438 11.9209C14.8438 11.4748 15.213 11.1057 15.659 11.1057L24.9958 11.1057C25.4419 11.1057 25.8111 11.4748 25.8111 11.9209L25.8111 21.2577C25.8111 21.4884 25.7188 21.6884 25.5727 21.8345Z" fill="#584934"/>
<path d="M25.4413 12.6281L12.4975 25.5719C12.1821 25.8873 11.6592 25.8873 11.3438 25.5719C11.0285 25.2566 11.0285 24.7336 11.3438 24.4183L24.2877 11.4745C24.603 11.1591 25.126 11.1591 25.4413 11.4745C25.7566 11.7898 25.7566 12.3128 25.4413 12.6281Z" fill="#584934"/>
</svg>
