<svg
			width={width}
			height={height}
			viewBox={`0 0 ${width} ${height}`}
			fill="none"
			xmlns="http://www.w3.org/2000/svg"
			className=
		>
			<path
				d="M59.3525 50.1876C59.0167 50.5235 58.5571 50.7356 58.0267 50.7356C57.0014 50.7356 56.1529 49.8871 56.1529 48.8618L56.1529 29.275L36.566 29.275C35.5407 29.275 34.6922 28.4264 34.6922 27.4011C34.6922 26.3758 35.5407 25.5273 36.566 25.5273L58.0267 25.5273C59.052 25.5273 59.9006 26.3758 59.9006 27.4011L59.9006 48.8618C59.9006 49.3921 59.6884 49.8518 59.3525 50.1876Z"
				fill={color}
			/>
			<path
				d="M59.0506 29.0262L29.2991 58.7777C28.5743 59.5025 27.3723 59.5025 26.6475 58.7777C25.9227 58.0529 25.9227 56.8509 26.6475 56.1261L56.399 26.3746C57.1238 25.6498 58.3259 25.6498 59.0506 26.3746C59.7754 27.0993 59.7754 28.3014 59.0506 29.0262Z"
				fill={color}
			/>
		</svg>