<svg width="772" height="440" viewBox="0 0 772 440" fill="none" xmlns="http://www.w3.org/2000/svg">
<path d="M376.665 274.315L376.665 274.316C376.74 274.451 376.815 274.586 376.89 274.721L376.436 272.578L376.435 272.57L376.433 272.562C375.143 265.342 374.369 258.138 374.248 250.92C374.128 243.693 374.641 236.469 375.865 229.214L375.865 229.213C379.406 208.506 388.183 190.771 401.518 178.086C414.758 165.486 432.409 157.888 453.653 157.396L453.704 158.394C433.201 160.01 416.559 168.188 404.445 181C392.592 193.54 385.135 210.56 382.802 230.215L382.802 230.217C381.973 237.059 381.827 243.846 382.232 250.611C382.641 257.371 383.621 264.098 385.105 270.822C385.105 270.825 385.106 270.827 385.106 270.83L388.62 284.664C388.62 284.667 388.621 284.67 388.622 284.672C388.703 284.957 389.092 286.521 389.451 288.253C389.633 289.129 389.809 290.056 389.934 290.888C390.058 291.709 390.137 292.472 390.112 293.007M376.665 274.315L364.089 25.1841C367.906 24.7298 371.56 25.5924 374.481 28.6428L375.225 27.9752C372.178 24.353 368.124 23.1926 363.935 23.4175L363.935 23.4176C357.811 23.7533 351.331 27.1025 346.858 30.3998L346.857 30.4001C338.157 36.8307 331.398 45.6153 326.377 55.3805C321.344 65.1472 318.096 75.9013 316.37 86.267L316.369 86.27C311.898 114.16 314.559 143.449 321.67 171.877C325.15 185.802 329.704 199.521 334.971 212.742L334.971 212.743C340.38 226.31 346.612 239.32 353.024 251.612L353.026 251.617C353.948 253.335 355.135 255.704 356.519 258.464C360.226 265.861 365.341 276.068 370.521 284.079L370.941 283.807L370.521 284.079C374.514 290.251 378.72 295.244 382.405 297.366L382.408 297.367C383.449 297.958 384.417 298.178 385.306 298.133C386.192 298.088 386.964 297.781 387.618 297.372L387.619 297.371C388.532 296.795 390.004 295.516 390.112 293.007M376.665 274.315C372.77 267.3 369.099 259.483 366.269 253.457C364.953 250.655 363.819 248.24 362.929 246.473L362.927 246.468M376.665 274.315L362.927 246.468M390.112 293.007C390.112 293.007 390.112 293.007 390.112 293.007L389.613 292.985L390.112 293.006C390.112 293.006 390.112 293.007 390.112 293.007ZM362.927 246.468C356.955 234.93 351.31 222.682 346.064 210.058L345.603 210.25M362.927 246.468L345.603 210.25M345.603 210.25L346.064 210.058C338.442 191.723 331.864 172.543 327.538 153.095C322.646 131.085 320.456 108.815 322.938 87.1769L322.938 87.1744M345.603 210.25L322.938 87.1744M322.938 87.1744C324.022 77.2807 326.542 66.9619 330.747 57.4736L330.747 57.4733M322.938 87.1744L330.747 57.4733M330.747 57.4733C334.969 47.9318 340.844 39.2556 348.668 32.7011L348.669 32.7006M330.747 57.4733L348.669 32.7006M348.669 32.7006C352.687 29.323 358.519 25.85 364.089 25.1841L348.669 32.7006Z" fill="#EBB63B" stroke="#E6C068"/>
<path d="M361.882 43.1527L360.936 43.4755L361.233 44.439L361.271 44.5607L361.362 44.6497C362.769 46.023 364.863 46.6732 367.042 46.9594L367.042 46.9595C370.198 47.3692 373.706 47.0229 375.983 46.7786C381.751 46.1672 387.581 45.2217 393.347 43.9891L393.347 43.9891C399.129 42.7513 404.843 41.2261 410.374 39.4502L410.375 39.4498C417.88 37.0186 426.662 33.4209 436.161 29.5296C441.123 27.497 446.28 25.3843 451.553 23.3159C466.948 17.2768 483.366 11.598 498.956 9.29165L498.956 9.29163C519.604 6.23071 538.68 9.15435 551.359 26.5705L551.36 26.5719C556.893 34.1158 560.131 42.9788 562.007 52.3174L562.007 52.3175C564.9 66.6908 564.482 82.1662 563.442 95.9991L563.441 96.0019C562.323 112.087 560.247 128.434 557.333 144.74C555.419 155.453 553.124 166.144 550.424 176.72C543.625 203.361 534.206 229.28 521.453 252.851L521.452 252.853C516.001 263.033 503.053 282.314 488.326 294.769C483.367 298.963 478.257 302.417 473.2 304.36C468.15 306.299 463.179 306.722 458.459 304.898L458.279 305.365L458.459 304.898C453.107 302.833 450.057 298.264 448.216 292.768L447.742 292.927L448.216 292.768C445.482 284.607 445.385 274.653 445.31 267.035C445.304 266.352 445.297 265.688 445.289 265.046C445.228 260.271 445.375 254.596 445.537 248.385C445.883 235.07 446.293 219.294 444.849 204.649C443.363 189.562 439.91 175.541 432.366 166.503L431.585 167.127C438.493 176.131 441.312 189.896 442.191 204.858C443.05 219.445 442.063 235.011 441.224 248.236C440.829 254.465 440.467 260.175 440.347 265.019C440.333 265.545 440.319 266.086 440.304 266.641C440.09 274.673 439.8 285.553 442.466 294.579L442.945 294.438L442.466 294.58C444.628 301.89 448.752 308.035 455.948 311.096L455.948 311.096C467.686 316.08 481.117 310.593 493.34 300.887C509.391 288.146 523.679 268.088 529.77 257.462L529.771 257.461C543.424 233.404 553.872 206.926 561.246 179.563C564.166 168.725 566.591 157.747 568.547 146.739C571.514 130.014 573.365 113.214 574.371 96.7129L574.372 96.7101C575.185 82.022 575.298 65.507 571.855 50.2184C569.463 39.5886 565.37 29.5264 558.762 20.996L558.762 20.9949C543.358 1.23346 521.287 -2.18708 497.765 2.18566C481.974 5.1212 465.519 11.5604 450.189 18.3036C444.853 20.651 439.657 23.0329 434.673 25.3182C425.312 29.6095 416.695 33.5602 409.282 36.302L409.281 36.3025C403.932 38.2967 398.386 40.0572 392.762 41.5268L392.761 41.5269C387.127 43.0018 381.42 44.196 375.761 45.0631C373.515 45.4026 370.181 45.8868 367.186 45.6322L367.185 45.6321C365.164 45.4624 363.378 44.9709 362.182 43.9515L361.882 43.1527Z" fill="#EBB63B" stroke="#E6C068"/>
<path d="M198.707 404.349V404.849H199.207H225.103C231.25 404.849 236.491 402.472 240.805 397.749C245.129 393.027 247.29 387.29 247.29 380.558C247.29 373.684 245.147 367.773 240.855 362.854L240.854 362.854C236.558 357.935 231.298 355.453 225.103 355.453H199.207H198.707V355.953V358.183V358.683H199.207H200.895C202.146 358.683 203.143 358.737 203.892 358.841C204.665 358.947 205.099 359.098 205.292 359.235L205.292 359.236L205.3 359.241C205.691 359.509 205.999 360.168 205.999 361.495V398.808C205.999 400.17 205.694 400.854 205.312 401.13C205.128 401.261 204.7 401.406 203.921 401.51C203.167 401.61 202.16 401.662 200.895 401.662H199.207H198.707V402.162V404.349ZM213.451 401.303L213.448 401.3C213.378 401.233 213.277 401.069 213.2 400.72C213.124 400.381 213.082 399.921 213.082 399.328V361.016C213.082 360.409 213.124 359.941 213.2 359.599C213.278 359.245 213.379 359.088 213.442 359.029L213.103 358.662L213.442 359.029C213.497 358.978 213.696 358.875 214.176 358.796C214.628 358.723 215.246 358.683 216.04 358.683H223.124C228.408 358.683 232.564 360.794 235.635 365.038C237.986 368.286 239.207 373.429 239.207 380.558C239.207 387.328 237.908 392.393 235.387 395.824C234.354 397.23 232.816 398.565 230.759 399.818L230.759 399.818C228.757 401.04 226.249 401.662 223.207 401.662H216.04C215.246 401.662 214.629 401.62 214.179 401.544C213.702 401.463 213.506 401.356 213.451 401.303Z" fill="#EBB63B" stroke="#E6C068"/>
<path d="M312.358 398.266C311.65 399.032 310.775 399.74 309.733 400.391C308.702 401.047 307.447 401.505 305.962 401.766L312.358 398.266ZM312.358 398.266C313.066 397.505 313.66 396.433 314.15 395.058L312.358 398.266ZM273.691 404.349V404.849H274.191H315.046H315.471L315.539 404.429L318.497 386.158L318.591 385.578H318.004H316.254H315.828L315.76 385.999C315.428 388.078 315.117 389.742 314.829 390.987L314.828 390.991C314.552 392.234 314.173 393.531 313.68 394.887L313.679 394.89C313.203 396.227 312.638 397.232 311.992 397.925L311.991 397.926C311.318 398.654 310.479 399.335 309.468 399.967L309.465 399.969C308.5 400.583 307.31 401.022 305.876 401.273L305.874 401.274C304.422 401.533 302.698 401.662 300.691 401.662H291.233C290.455 401.662 289.847 401.621 289.4 401.544C288.93 401.463 288.723 401.357 288.656 401.295L288.654 401.293C288.58 401.225 288.476 401.063 288.396 400.716C288.318 400.379 288.275 399.921 288.275 399.328V380.912H294.15C295.75 380.912 297.034 381.055 298.016 381.327C299.002 381.599 299.64 381.99 300.009 382.452L300.01 382.454C300.406 382.948 300.732 383.698 300.956 384.747C301.18 385.791 301.296 387.1 301.296 388.683V389.183H301.796H303.587H304.087V388.683V369.933V369.433H303.587H301.796H301.296V369.933C301.296 371.537 301.18 372.861 300.956 373.913C300.732 374.971 300.406 375.718 300.012 376.2L300.012 376.2C299.645 376.651 299.007 377.032 298.019 377.299C297.036 377.564 295.751 377.703 294.15 377.703H288.275V361.224C288.275 360.634 288.317 360.174 288.392 359.834C288.47 359.484 288.571 359.319 288.641 359.252L288.641 359.252L288.644 359.25C288.698 359.197 288.895 359.09 289.372 359.009C289.822 358.932 290.439 358.891 291.233 358.891H300.379C303.047 358.891 305.179 359.129 306.785 359.58C308.378 360.031 309.638 360.815 310.582 361.923L310.582 361.925C311.56 363.065 312.255 364.374 312.668 365.857C313.085 367.38 313.457 369.482 313.778 372.179L313.831 372.62H314.275H316.046H316.611L316.542 372.059L314.563 356.1L314.508 355.662H314.066H274.191H273.691V356.162V358.391V358.891H274.191H275.879C277.139 358.891 278.141 358.945 278.893 359.049C279.669 359.156 280.104 359.306 280.297 359.444L280.297 359.444L280.3 359.446C280.68 359.713 280.983 360.374 280.983 361.703V398.808C280.983 400.173 280.688 400.856 280.315 401.131C280.132 401.261 279.702 401.407 278.922 401.51C278.164 401.61 277.152 401.662 275.879 401.662H274.191H273.691V402.162V404.349Z" fill="#EBB63B" stroke="#E6C068"/>
<path d="M342.945 404.863V404.349V402.162V401.662H343.445C345.126 401.662 346.468 401.497 347.486 401.184C348.511 400.868 349.114 400.442 349.415 399.962C349.79 399.345 350.003 398.867 350.084 398.525L350.086 398.517L350.086 398.517C350.181 398.147 350.237 397.615 350.237 396.912V359.933C350.237 359.618 350.214 359.39 350.18 359.235C350.154 359.12 350.129 359.076 350.125 359.069L350.124 359.068L350.113 359.057C350.117 359.062 350.117 359.062 350.11 359.058C350.09 359.047 350.017 359.009 349.845 358.963C349.637 358.907 349.345 358.853 348.962 358.806C347.569 358.723 346.413 358.683 345.487 358.683H343.445H342.945V358.183V355.953V355.453H343.445H355.487C355.831 355.453 356.124 355.467 356.362 355.495C356.585 355.521 356.811 355.565 356.986 355.655L356.994 355.659L357.002 355.663C357.153 355.747 357.302 355.879 357.443 356.023C357.588 356.172 357.749 356.361 357.923 356.583L357.933 356.596L357.942 356.61L382.029 392.037V363.391C382.029 362.703 381.978 362.18 381.895 361.813L381.892 361.801L381.893 361.801C381.828 361.479 381.619 361.016 381.214 360.393L381.209 360.385L381.209 360.385C380.892 359.877 380.281 359.445 379.262 359.141C378.241 358.842 376.902 358.683 375.237 358.683H374.737V358.183V355.953V355.439L375.251 355.454C380.215 355.594 382.96 355.662 383.508 355.662C384.066 355.662 386.822 355.594 391.785 355.454L392.299 355.439V355.953V358.183V358.683H391.799C390.118 358.683 388.775 358.842 387.754 359.141C386.733 359.446 386.12 359.877 385.809 360.381C385.432 361 385.211 361.485 385.119 361.842C385.033 362.222 384.987 362.735 384.987 363.391V402.516C384.987 402.908 384.974 403.242 384.947 403.514C384.921 403.774 384.88 404.012 384.807 404.196C384.705 404.465 384.496 404.635 384.265 404.729C384.045 404.819 383.789 404.849 383.529 404.849C383.208 404.849 382.92 404.697 382.678 404.51C382.431 404.318 382.18 404.047 381.925 403.718L381.916 403.706L381.907 403.693L353.216 361.566V396.912C353.216 397.617 353.257 398.157 353.33 398.538C353.407 398.871 353.621 399.342 354.012 399.954L342.945 404.863ZM342.945 404.863L343.459 404.849M342.945 404.863L343.459 404.849M343.459 404.849C348.424 404.713 351.168 404.641 351.716 404.641C352.275 404.641 355.029 404.713 359.994 404.849L360.508 404.863V404.349V402.162V401.662M343.459 404.849L360.508 401.662M360.508 401.662H360.008M360.508 401.662H360.008M360.008 401.662C358.327 401.662 356.985 401.497 355.967 401.184C354.94 400.868 354.323 400.439 354.012 399.955L360.008 401.662Z" fill="#EBB63B" stroke="#E6C068"/>
<path d="M417.338 372.828L417.385 372.286L418.739 356.369L418.778 355.912H419.237H462.487H462.946L462.985 356.369L464.339 372.286L464.385 372.828H463.841H462.091H461.636L461.593 372.375C461.396 370.253 461.209 368.591 461.034 367.379L461.033 367.375C460.871 366.19 460.592 365.024 460.202 363.888C459.805 362.747 459.384 361.96 458.948 361.475L458.942 361.468L458.942 361.467C458.512 360.969 457.863 360.501 456.96 360.072L456.957 360.07C456.072 359.642 455.049 359.374 453.879 359.264C452.675 359.156 451.155 359.099 449.32 359.099C447.167 359.099 445.87 359.141 445.376 359.215C444.896 359.335 444.727 359.525 444.669 359.697L444.668 359.7C444.556 360.023 444.487 360.583 444.487 361.433V398.745C444.487 399.69 444.585 400.248 444.723 400.517L417.338 372.828ZM417.338 372.828H417.883M417.338 372.828H417.883M417.883 372.828H419.654H420.114L420.152 372.37C420.329 370.249 420.495 368.586 420.649 367.373C420.812 366.186 421.085 365.022 421.48 363.889L421.48 363.889L421.481 363.887C421.872 362.749 422.298 361.961 422.734 361.475L422.734 361.475L422.737 361.471C423.179 360.97 423.834 360.501 424.742 360.072L424.742 360.072L424.747 360.07C425.626 359.643 426.649 359.374 427.824 359.264C429.039 359.156 430.564 359.099 432.404 359.099C433.442 359.099 434.275 359.112 434.904 359.137C435.545 359.161 435.946 359.197 436.14 359.236L436.14 359.236L436.149 359.237C436.556 359.31 436.753 359.439 436.845 359.555L436.852 359.564L436.86 359.573C437.015 359.752 437.092 359.922 437.118 360.091L437.119 360.099L437.12 360.107C437.164 360.341 437.195 360.772 437.195 361.433V398.745C437.195 399.678 437.1 400.248 436.973 400.53C436.949 400.575 436.856 400.687 436.577 400.833C436.303 400.976 435.909 401.12 435.382 401.261C434.348 401.525 432.652 401.662 430.258 401.662H427.424H426.924V402.162V404.349V404.885L427.459 404.848C429.381 404.714 433.826 404.641 440.82 404.641C447.851 404.641 452.312 404.714 454.223 404.848L454.758 404.886V404.349V402.162V401.662M417.883 372.828L454.758 401.662M454.758 401.662H454.258M454.758 401.662H454.258M454.258 401.662H451.424C449.041 401.662 447.351 401.525 446.323 401.262M454.258 401.662L446.323 401.262M446.323 401.262C445.8 401.121 445.409 400.976 445.134 400.833C444.848 400.684 444.749 400.567 444.723 400.517L446.323 401.262Z" fill="#EBB63B" stroke="#E6C068"/>
<path d="M489.34 404.349V404.87L489.861 404.849C493.111 404.713 495.497 404.641 497.027 404.641C497.919 404.641 500.632 404.713 505.179 404.849L505.694 404.864V404.349V402.162V401.662H505.194C503.548 401.662 502.349 401.32 501.542 400.704C500.724 400.062 500.361 399.344 500.361 398.537C500.361 398.286 500.372 398.091 500.392 397.944C500.413 397.789 500.439 397.725 500.446 397.713L500.465 397.678L500.478 397.641L503.631 388.703H520.422L524.046 399.155C524.111 399.434 524.16 399.65 524.193 399.807C524.21 399.887 524.222 399.948 524.229 399.991C524.233 400.012 524.235 400.025 524.236 400.031C524.232 400.255 524.158 400.444 523.998 400.618C523.825 400.806 523.536 400.994 523.09 401.156C522.19 401.483 520.787 401.662 518.84 401.662H518.34V402.162V404.349V404.89L518.879 404.848C520.565 404.714 523.947 404.641 529.048 404.641C532.249 404.641 535.33 404.714 538.296 404.849L538.819 404.872V404.349V402.162V401.662H538.319H537.069C536.01 401.662 535.133 401.619 534.434 401.536C533.728 401.451 533.236 401.329 532.925 401.187C532.338 400.911 531.843 400.292 531.506 399.183L531.503 399.174L531.5 399.165L516.208 354.894L516.204 354.881L516.198 354.868C516.074 354.563 515.966 354.315 515.887 354.179C515.824 354.046 515.728 353.899 515.626 353.752C515.453 353.501 515.213 353.318 514.91 353.242C514.684 353.174 514.413 353.141 514.111 353.141C513.549 353.141 513.024 353.239 512.672 353.561C512.357 353.84 512.128 354.327 511.948 354.901L497.285 397.226C497.284 397.226 497.284 397.227 497.284 397.227C496.778 398.673 495.919 399.748 494.706 400.479C493.484 401.215 491.869 401.621 489.83 401.662L489.34 401.672V402.162V404.349ZM504.75 385.516L512.007 364.504L519.283 385.516H504.75Z" fill="#EBB63B" stroke="#E6C068"/>
<path d="M563.633 404.349V404.849H564.133H601.029H601.477L601.526 404.403L603.505 386.132L603.565 385.578H603.008H601.237H600.782L600.739 386.032C600.557 387.974 600.372 389.468 600.182 390.531C599.991 391.576 599.6 392.937 598.996 394.617C598.398 396.269 597.661 397.492 596.805 398.324C595.95 399.155 594.684 399.932 592.984 400.637C591.335 401.314 589.34 401.662 586.987 401.662H581.174C580.396 401.662 579.789 401.62 579.342 401.544C578.871 401.463 578.664 401.357 578.598 401.295L578.595 401.293C578.521 401.225 578.417 401.062 578.337 400.716C578.259 400.379 578.216 399.921 578.216 399.328V361.558C578.216 360.617 578.303 360.051 578.423 359.781L577.966 359.578L578.423 359.781C578.443 359.736 578.521 359.629 578.768 359.489C579.008 359.353 579.356 359.215 579.831 359.08C580.746 358.824 582.266 358.683 584.424 358.683H586.779H587.279V358.183V355.953V355.411L586.738 355.455C585.054 355.594 581.108 355.662 574.883 355.662C569.362 355.662 565.801 355.594 564.175 355.455L563.633 355.409V355.953V358.183V358.683H564.133H565.82C567.08 358.683 568.082 358.737 568.835 358.841C569.611 358.948 570.045 359.098 570.238 359.235L570.238 359.235L570.241 359.238C570.621 359.504 570.924 360.166 570.924 361.495V398.808C570.924 400.173 570.63 400.856 570.257 401.131C570.073 401.261 569.644 401.407 568.864 401.51C568.106 401.61 567.094 401.662 565.82 401.662H564.133H563.633V402.162V404.349Z" fill="#EBB63B" stroke="#E6C068"/>
<mask id="path-9-outside-1_2058_2385" maskUnits="userSpaceOnUse" x="0" y="225.252" width="177" height="184" fill="black">
<rect fill="white" y="225.252" width="177" height="184"/>
<path d="M172.521 244.69C173.422 244.69 174.052 244.783 174.417 244.96C174.776 245.143 175.047 245.231 175.229 245.231C175.406 246.315 174.547 247.221 172.646 247.94C170.755 248.664 169.177 249.205 167.917 249.565C167.193 249.747 166.651 249.929 166.292 250.106C159.776 252.471 153.584 255.002 147.709 257.71C141.834 260.419 136.459 263.95 131.584 268.294C122.542 276.059 115.313 286.179 109.896 298.648C95.9638 331.19 74.3596 362.377 45.0836 392.21C41.8179 395.46 38.2919 398.528 34.5002 401.419C30.7086 404.32 26.0992 406.221 20.6669 407.127C19.0419 407.304 17.5106 407.398 16.0627 407.398C11.7294 407.398 8.02106 405.856 4.93773 402.773C2.41168 400.242 1.10439 397.669 1.02106 395.044C0.927309 392.429 1.14606 389.95 1.68773 387.606C3.31273 381.45 5.89085 376.023 9.41689 371.315C12.9481 366.617 16.6981 362.106 20.6669 357.773C36.5836 340.049 51.8127 323.867 66.3544 309.231C80.9065 294.591 96.8648 281.309 114.229 269.377C118.38 266.658 121.177 262.95 122.625 258.252C124.068 253.559 125.25 248.768 126.167 243.877L126.979 239.815C127.339 237.471 126.88 235.664 125.604 234.398C125.24 233.846 124.61 233.346 123.709 232.898C122.802 232.44 121.542 232.21 119.917 232.21C119.375 232.21 118.922 232.21 118.563 232.21C114.589 232.575 110.61 234.294 106.625 237.377C102.651 240.45 99.3544 244.106 96.7294 248.356C94.1148 252.606 92.9013 256.721 93.0836 260.69C93.0836 262.856 92.6252 264.122 91.7086 264.481C91.344 264.481 90.9846 264.481 90.6252 264.481C89.719 264.481 89.1773 264.122 89.0002 263.398C88.4586 262.137 87.7346 260.783 86.8336 259.335C85.9273 257.893 84.844 257.169 83.5836 257.169C82.8596 257.169 82.1773 257.492 81.5419 258.127C80.9169 258.752 80.3336 259.429 79.7919 260.148C79.2502 261.054 78.8856 261.596 78.7086 261.773C77.6252 262.679 76.4898 263.627 75.3127 264.627C74.1304 265.617 73.0002 266.559 71.9169 267.46C68.6669 270.184 65.3648 272.898 62.0211 275.606C58.6721 278.315 55.0106 280.664 51.0419 282.648C49.4169 283.372 47.8336 284.054 46.2919 284.69C44.7606 285.33 43.1877 285.648 41.5627 285.648C38.6565 285.648 35.8544 284.559 33.1461 282.377C29.5367 279.492 27.7294 276.471 27.7294 273.315C27.7294 270.148 28.0002 267.117 28.5419 264.21C32.5159 246.867 41.7294 235.023 56.1877 228.69C59.9898 227.065 63.4273 226.252 66.5002 226.252C73.3752 226.252 80.1513 230.596 86.8336 239.273C87.5523 240.356 88.3179 241.262 89.1252 241.981C89.9429 242.705 90.8023 243.065 91.7086 243.065C92.2606 243.065 93.1721 242.617 94.4377 241.71L95.5211 241.169C98.2294 239.184 101.026 237.289 103.917 235.481C106.802 233.664 109.88 232.033 113.146 230.585C115.672 229.325 117.927 228.69 119.917 228.69C122.261 228.69 124.344 229.414 126.167 230.856C128.511 232.664 129.865 234.789 130.229 237.231C130.589 239.679 130.677 242.252 130.5 244.96C130.5 246.226 130.406 247.539 130.229 248.898C130.047 250.247 129.776 251.648 129.417 253.106L128.604 258.523L130.229 259.065C130.406 258.705 131.531 258.122 133.604 257.315C135.688 256.497 137.271 255.908 138.354 255.544C139.797 255.184 140.698 254.914 141.063 254.731C143.063 253.83 144.964 252.971 146.771 252.148C148.573 251.33 150.38 250.559 152.188 249.835C156.339 248.21 161.49 246.679 167.646 245.231C168.188 245.231 168.906 245.143 169.813 244.96C170.714 244.783 171.615 244.69 172.521 244.69ZM79.2502 254.731C80.3336 253.83 81.2763 252.789 82.0836 251.606C82.9013 250.429 82.4065 248.575 80.6044 246.044C79.1565 244.059 77.3961 242.21 75.3127 240.502C73.2294 238.783 70.3804 237.919 66.7711 237.919H66.5002C50.7763 242.075 40.469 252.101 35.5836 268.002C35.219 269.46 34.9481 271.143 34.7711 273.044C34.5888 274.934 35.4898 276.69 37.4794 278.315C38.7398 279.58 40.1929 280.21 41.8336 280.21C42.7346 280.21 43.6356 280.033 44.5419 279.669C45.4429 279.309 46.2554 278.95 46.9794 278.585C52.2138 276.059 56.8648 273.169 60.9377 269.919C65.0054 266.658 68.9377 263.398 72.7294 260.148C73.6304 259.429 74.5315 258.664 75.4377 257.856C76.3544 257.039 77.1721 256.268 77.8961 255.544C78.0731 255.367 78.5263 255.096 79.2502 254.731ZM28.5419 391.669C45.8856 377.012 60.7971 360.335 73.2711 341.627C85.7554 322.919 97.2346 304.169 107.709 285.377L106.354 284.273C97.8648 289.346 90.094 295.085 83.0419 301.502C75.9846 307.919 69.2971 314.382 62.9794 320.898C60.6304 323.242 58.2763 325.591 55.9169 327.94C53.5679 330.283 51.1304 332.632 48.6044 334.981C41.9065 341.315 35.3127 347.908 28.8127 354.773C22.3023 361.648 16.6981 369.242 12.0002 377.565L10.6461 379.731C9.02106 382.257 7.70856 385.012 6.70856 388.002C5.70856 390.986 6.75023 393.835 9.83356 396.544C11.6409 398.169 13.6252 398.981 15.7919 398.981C17.9586 398.981 19.995 398.299 21.8961 396.94C23.8023 395.591 25.5627 394.195 27.1877 392.752L28.5419 391.669Z"/>
</mask>
<path d="M172.521 244.69C173.422 244.69 174.052 244.783 174.417 244.96C174.776 245.143 175.047 245.231 175.229 245.231C175.406 246.315 174.547 247.221 172.646 247.94C170.755 248.664 169.177 249.205 167.917 249.565C167.193 249.747 166.651 249.929 166.292 250.106C159.776 252.471 153.584 255.002 147.709 257.71C141.834 260.419 136.459 263.95 131.584 268.294C122.542 276.059 115.313 286.179 109.896 298.648C95.9638 331.19 74.3596 362.377 45.0836 392.21C41.8179 395.46 38.2919 398.528 34.5002 401.419C30.7086 404.32 26.0992 406.221 20.6669 407.127C19.0419 407.304 17.5106 407.398 16.0627 407.398C11.7294 407.398 8.02106 405.856 4.93773 402.773C2.41168 400.242 1.10439 397.669 1.02106 395.044C0.927309 392.429 1.14606 389.95 1.68773 387.606C3.31273 381.45 5.89085 376.023 9.41689 371.315C12.9481 366.617 16.6981 362.106 20.6669 357.773C36.5836 340.049 51.8127 323.867 66.3544 309.231C80.9065 294.591 96.8648 281.309 114.229 269.377C118.38 266.658 121.177 262.95 122.625 258.252C124.068 253.559 125.25 248.768 126.167 243.877L126.979 239.815C127.339 237.471 126.88 235.664 125.604 234.398C125.24 233.846 124.61 233.346 123.709 232.898C122.802 232.44 121.542 232.21 119.917 232.21C119.375 232.21 118.922 232.21 118.563 232.21C114.589 232.575 110.61 234.294 106.625 237.377C102.651 240.45 99.3544 244.106 96.7294 248.356C94.1148 252.606 92.9013 256.721 93.0836 260.69C93.0836 262.856 92.6252 264.122 91.7086 264.481C91.344 264.481 90.9846 264.481 90.6252 264.481C89.719 264.481 89.1773 264.122 89.0002 263.398C88.4586 262.137 87.7346 260.783 86.8336 259.335C85.9273 257.893 84.844 257.169 83.5836 257.169C82.8596 257.169 82.1773 257.492 81.5419 258.127C80.9169 258.752 80.3336 259.429 79.7919 260.148C79.2502 261.054 78.8856 261.596 78.7086 261.773C77.6252 262.679 76.4898 263.627 75.3127 264.627C74.1304 265.617 73.0002 266.559 71.9169 267.46C68.6669 270.184 65.3648 272.898 62.0211 275.606C58.6721 278.315 55.0106 280.664 51.0419 282.648C49.4169 283.372 47.8336 284.054 46.2919 284.69C44.7606 285.33 43.1877 285.648 41.5627 285.648C38.6565 285.648 35.8544 284.559 33.1461 282.377C29.5367 279.492 27.7294 276.471 27.7294 273.315C27.7294 270.148 28.0002 267.117 28.5419 264.21C32.5159 246.867 41.7294 235.023 56.1877 228.69C59.9898 227.065 63.4273 226.252 66.5002 226.252C73.3752 226.252 80.1513 230.596 86.8336 239.273C87.5523 240.356 88.3179 241.262 89.1252 241.981C89.9429 242.705 90.8023 243.065 91.7086 243.065C92.2606 243.065 93.1721 242.617 94.4377 241.71L95.5211 241.169C98.2294 239.184 101.026 237.289 103.917 235.481C106.802 233.664 109.88 232.033 113.146 230.585C115.672 229.325 117.927 228.69 119.917 228.69C122.261 228.69 124.344 229.414 126.167 230.856C128.511 232.664 129.865 234.789 130.229 237.231C130.589 239.679 130.677 242.252 130.5 244.96C130.5 246.226 130.406 247.539 130.229 248.898C130.047 250.247 129.776 251.648 129.417 253.106L128.604 258.523L130.229 259.065C130.406 258.705 131.531 258.122 133.604 257.315C135.688 256.497 137.271 255.908 138.354 255.544C139.797 255.184 140.698 254.914 141.063 254.731C143.063 253.83 144.964 252.971 146.771 252.148C148.573 251.33 150.38 250.559 152.188 249.835C156.339 248.21 161.49 246.679 167.646 245.231C168.188 245.231 168.906 245.143 169.813 244.96C170.714 244.783 171.615 244.69 172.521 244.69ZM79.2502 254.731C80.3336 253.83 81.2763 252.789 82.0836 251.606C82.9013 250.429 82.4065 248.575 80.6044 246.044C79.1565 244.059 77.3961 242.21 75.3127 240.502C73.2294 238.783 70.3804 237.919 66.7711 237.919H66.5002C50.7763 242.075 40.469 252.101 35.5836 268.002C35.219 269.46 34.9481 271.143 34.7711 273.044C34.5888 274.934 35.4898 276.69 37.4794 278.315C38.7398 279.58 40.1929 280.21 41.8336 280.21C42.7346 280.21 43.6356 280.033 44.5419 279.669C45.4429 279.309 46.2554 278.95 46.9794 278.585C52.2138 276.059 56.8648 273.169 60.9377 269.919C65.0054 266.658 68.9377 263.398 72.7294 260.148C73.6304 259.429 74.5315 258.664 75.4377 257.856C76.3544 257.039 77.1721 256.268 77.8961 255.544C78.0731 255.367 78.5263 255.096 79.2502 254.731ZM28.5419 391.669C45.8856 377.012 60.7971 360.335 73.2711 341.627C85.7554 322.919 97.2346 304.169 107.709 285.377L106.354 284.273C97.8648 289.346 90.094 295.085 83.0419 301.502C75.9846 307.919 69.2971 314.382 62.9794 320.898C60.6304 323.242 58.2763 325.591 55.9169 327.94C53.5679 330.283 51.1304 332.632 48.6044 334.981C41.9065 341.315 35.3127 347.908 28.8127 354.773C22.3023 361.648 16.6981 369.242 12.0002 377.565L10.6461 379.731C9.02106 382.257 7.70856 385.012 6.70856 388.002C5.70856 390.986 6.75023 393.835 9.83356 396.544C11.6409 398.169 13.6252 398.981 15.7919 398.981C17.9586 398.981 19.995 398.299 21.8961 396.94C23.8023 395.591 25.5627 394.195 27.1877 392.752L28.5419 391.669Z" fill="#EBB63B"/>
<path d="M172.521 244.69C173.422 244.69 174.052 244.783 174.417 244.96C174.776 245.143 175.047 245.231 175.229 245.231C175.406 246.315 174.547 247.221 172.646 247.94C170.755 248.664 169.177 249.205 167.917 249.565C167.193 249.747 166.651 249.929 166.292 250.106C159.776 252.471 153.584 255.002 147.709 257.71C141.834 260.419 136.459 263.95 131.584 268.294C122.542 276.059 115.313 286.179 109.896 298.648C95.9638 331.19 74.3596 362.377 45.0836 392.21C41.8179 395.46 38.2919 398.528 34.5002 401.419C30.7086 404.32 26.0992 406.221 20.6669 407.127C19.0419 407.304 17.5106 407.398 16.0627 407.398C11.7294 407.398 8.02106 405.856 4.93773 402.773C2.41168 400.242 1.10439 397.669 1.02106 395.044C0.927309 392.429 1.14606 389.95 1.68773 387.606C3.31273 381.45 5.89085 376.023 9.41689 371.315C12.9481 366.617 16.6981 362.106 20.6669 357.773C36.5836 340.049 51.8127 323.867 66.3544 309.231C80.9065 294.591 96.8648 281.309 114.229 269.377C118.38 266.658 121.177 262.95 122.625 258.252C124.068 253.559 125.25 248.768 126.167 243.877L126.979 239.815C127.339 237.471 126.88 235.664 125.604 234.398C125.24 233.846 124.61 233.346 123.709 232.898C122.802 232.44 121.542 232.21 119.917 232.21C119.375 232.21 118.922 232.21 118.563 232.21C114.589 232.575 110.61 234.294 106.625 237.377C102.651 240.45 99.3544 244.106 96.7294 248.356C94.1148 252.606 92.9013 256.721 93.0836 260.69C93.0836 262.856 92.6252 264.122 91.7086 264.481C91.344 264.481 90.9846 264.481 90.6252 264.481C89.719 264.481 89.1773 264.122 89.0002 263.398C88.4586 262.137 87.7346 260.783 86.8336 259.335C85.9273 257.893 84.844 257.169 83.5836 257.169C82.8596 257.169 82.1773 257.492 81.5419 258.127C80.9169 258.752 80.3336 259.429 79.7919 260.148C79.2502 261.054 78.8856 261.596 78.7086 261.773C77.6252 262.679 76.4898 263.627 75.3127 264.627C74.1304 265.617 73.0002 266.559 71.9169 267.46C68.6669 270.184 65.3648 272.898 62.0211 275.606C58.6721 278.315 55.0106 280.664 51.0419 282.648C49.4169 283.372 47.8336 284.054 46.2919 284.69C44.7606 285.33 43.1877 285.648 41.5627 285.648C38.6565 285.648 35.8544 284.559 33.1461 282.377C29.5367 279.492 27.7294 276.471 27.7294 273.315C27.7294 270.148 28.0002 267.117 28.5419 264.21C32.5159 246.867 41.7294 235.023 56.1877 228.69C59.9898 227.065 63.4273 226.252 66.5002 226.252C73.3752 226.252 80.1513 230.596 86.8336 239.273C87.5523 240.356 88.3179 241.262 89.1252 241.981C89.9429 242.705 90.8023 243.065 91.7086 243.065C92.2606 243.065 93.1721 242.617 94.4377 241.71L95.5211 241.169C98.2294 239.184 101.026 237.289 103.917 235.481C106.802 233.664 109.88 232.033 113.146 230.585C115.672 229.325 117.927 228.69 119.917 228.69C122.261 228.69 124.344 229.414 126.167 230.856C128.511 232.664 129.865 234.789 130.229 237.231C130.589 239.679 130.677 242.252 130.5 244.96C130.5 246.226 130.406 247.539 130.229 248.898C130.047 250.247 129.776 251.648 129.417 253.106L128.604 258.523L130.229 259.065C130.406 258.705 131.531 258.122 133.604 257.315C135.688 256.497 137.271 255.908 138.354 255.544C139.797 255.184 140.698 254.914 141.063 254.731C143.063 253.83 144.964 252.971 146.771 252.148C148.573 251.33 150.38 250.559 152.188 249.835C156.339 248.21 161.49 246.679 167.646 245.231C168.188 245.231 168.906 245.143 169.813 244.96C170.714 244.783 171.615 244.69 172.521 244.69ZM79.2502 254.731C80.3336 253.83 81.2763 252.789 82.0836 251.606C82.9013 250.429 82.4065 248.575 80.6044 246.044C79.1565 244.059 77.3961 242.21 75.3127 240.502C73.2294 238.783 70.3804 237.919 66.7711 237.919H66.5002C50.7763 242.075 40.469 252.101 35.5836 268.002C35.219 269.46 34.9481 271.143 34.7711 273.044C34.5888 274.934 35.4898 276.69 37.4794 278.315C38.7398 279.58 40.1929 280.21 41.8336 280.21C42.7346 280.21 43.6356 280.033 44.5419 279.669C45.4429 279.309 46.2554 278.95 46.9794 278.585C52.2138 276.059 56.8648 273.169 60.9377 269.919C65.0054 266.658 68.9377 263.398 72.7294 260.148C73.6304 259.429 74.5315 258.664 75.4377 257.856C76.3544 257.039 77.1721 256.268 77.8961 255.544C78.0731 255.367 78.5263 255.096 79.2502 254.731ZM28.5419 391.669C45.8856 377.012 60.7971 360.335 73.2711 341.627C85.7554 322.919 97.2346 304.169 107.709 285.377L106.354 284.273C97.8648 289.346 90.094 295.085 83.0419 301.502C75.9846 307.919 69.2971 314.382 62.9794 320.898C60.6304 323.242 58.2763 325.591 55.9169 327.94C53.5679 330.283 51.1304 332.632 48.6044 334.981C41.9065 341.315 35.3127 347.908 28.8127 354.773C22.3023 361.648 16.6981 369.242 12.0002 377.565L10.6461 379.731C9.02106 382.257 7.70856 385.012 6.70856 388.002C5.70856 390.986 6.75023 393.835 9.83356 396.544C11.6409 398.169 13.6252 398.981 15.7919 398.981C17.9586 398.981 19.995 398.299 21.8961 396.94C23.8023 395.591 25.5627 394.195 27.1877 392.752L28.5419 391.669Z" stroke="#E6C068" stroke-width="2" mask="url(#path-9-outside-1_2058_2385)"/>
<path d="M284.308 58.0296L284.292 58.0156L284.276 58.0028C282.632 56.7279 281.165 56.0021 279.907 56.0021C278.667 56.0021 277.584 56.4723 276.678 57.3777L277.032 57.7312L276.678 57.3777C275.858 58.1978 275.08 59.0658 274.35 59.9817C273.67 60.833 273.195 61.4812 272.972 61.9012C258.506 77.6578 246.247 94.8941 236.196 113.62L236.196 113.62C226.162 132.333 216.358 151.274 206.772 170.445L206.772 170.447C195.56 193.053 184.707 216.336 174.22 240.302C163.727 264.269 154.725 288.955 147.219 314.36L147.698 314.502L147.219 314.36C139.71 339.794 134.782 366.091 132.43 393.247C132.43 393.249 132.43 393.25 132.43 393.251L132.161 395.942C132.16 395.944 132.16 395.946 132.16 395.947C131.617 400.473 131.303 405.093 131.22 409.805C131.125 414.568 131.805 419.503 133.259 424.618L133.262 424.628C134.732 429.407 137.111 433.034 140.425 435.462C143.739 437.89 147.94 439.085 152.99 439.085H153.261C154.436 439.085 155.488 438.779 156.395 438.166C157.443 437.463 157.738 436.123 157.55 434.446L157.549 434.441C157.364 432.924 156.792 431.721 155.789 430.901C155.193 430.127 154.451 429.68 153.565 429.669C149.307 429.132 146.395 427.809 144.708 425.786L144.693 425.768L144.676 425.751C143.289 424.375 142.532 422.849 142.363 421.161C142.189 419.386 142.096 417.523 142.095 415.572C142.277 414.65 142.365 413.732 142.366 412.815L142.365 412.802C141.825 391.341 144.807 367.616 151.309 341.623C160.885 303.86 173.615 267.279 189.509 231.874C205.417 196.466 223.302 162.59 243.165 130.245C252.013 115.988 261.312 101.819 271.064 87.739C271.252 87.546 271.413 87.3324 271.521 87.1005C271.586 86.9809 271.691 86.8416 271.844 86.689L271.871 86.6619L271.894 86.6309C273.883 83.9157 275.831 81.1121 277.741 78.2148L277.742 78.2136C279.632 75.33 281.655 72.6336 283.808 70.1189L283.818 70.1066L283.828 70.0937C285.473 67.9 286.544 65.8987 287.015 64.0889C287.547 62.0931 286.516 60.0577 284.308 58.0296Z" fill="#EBB63B" stroke="#E6C068"/>
<path d="M236.829 295.17C238.747 294.355 240.443 293.495 241.917 292.572L241.917 292.572L241.925 292.567C253.384 285.102 261.774 275.541 267.066 263.875L267.066 263.875L267.068 263.87C268.034 261.675 269.27 260.063 270.76 258.999C272.246 257.937 274.015 257.398 276.09 257.398C277.662 257.398 279.521 257.66 281.678 258.196L281.684 258.197L281.691 258.199C285.879 259.113 290.159 259.565 294.527 259.565C299.279 259.565 304.018 258.84 308.754 257.383C309.691 257.197 311.064 256.782 312.857 256.162L312.859 256.162C314.707 255.515 316.372 254.729 317.855 253.801C319.366 252.857 320.204 251.692 319.979 250.298L319.967 250.22L319.931 250.151C319.831 249.952 319.666 249.808 319.498 249.702C319.328 249.594 319.123 249.505 318.898 249.43C318.462 249.285 317.888 249.17 317.189 249.079C316.758 248.886 316.258 248.794 315.694 248.794C314.367 248.794 313.083 249.034 311.848 249.514C310.672 249.96 309.547 250.364 308.468 250.738L308.419 250.755L308.375 250.781C307.488 251.311 306.611 251.752 305.738 252.1L305.736 252.101C304.886 252.443 304.048 252.606 303.215 252.606H303.173L303.132 252.613C298.831 253.332 294.067 253.69 288.84 253.69H288.827H288.814H288.802H288.789H288.776H288.763H288.751H288.738H288.725H288.713H288.7H288.687H288.674H288.662H288.649H288.636H288.624H288.611H288.598H288.585H288.573H288.56H288.547H288.534H288.522H288.509H288.496H288.483H288.471H288.458H288.445H288.432H288.42H288.407H288.394H288.381H288.368H288.356H288.343H288.33H288.317H288.305H288.292H288.279H288.266H288.253H288.241H288.228H288.215H288.202H288.189H288.177H288.164H288.151H288.138H288.125H288.113H288.1H288.087H288.074H288.061H288.048H288.036H288.023H288.01H287.997H287.984H287.971H287.959H287.946H287.933H287.92H287.907H287.894H287.882H287.869H287.856H287.843H287.83H287.817H287.804H287.791H287.779H287.766H287.753H287.74H287.727H287.714H287.701H287.688H287.676H287.663H287.65H287.637H287.624H287.611H287.598H287.585H287.572H287.56H287.547H287.534H287.521H287.508H287.495H287.482H287.469H287.456H287.443H287.43H287.417H287.404H287.392H287.379H287.366H287.353H287.34H287.327H287.314H287.301H287.288H287.275H287.262H287.249H287.236H287.223H287.21H287.197H287.184H287.171H287.158H287.145H287.132H287.119H287.106H287.093H287.08H287.068H287.055H287.042H287.029H287.016H287.003H286.99H286.977H286.964H286.951H286.938H286.925H286.912H286.898H286.885H286.872H286.859H286.846H286.833H286.82H286.807H286.794H286.781H286.768H286.755H286.742H286.729H286.716H286.703H286.69H286.677H286.664H286.651H286.638H286.625H286.612H286.599H286.586H286.573H286.559H286.546H286.533H286.52H286.507H286.494H286.481H286.468H286.455H286.442H286.429H286.416H286.402H286.389H286.376H286.363H286.35H286.337H286.324H286.311H286.298H286.285H286.271H286.258H286.245H286.232H286.219H286.206H286.193H286.18H286.166H286.153H286.14H286.127H286.114H286.101H286.088H286.075H286.061H286.048H286.035H286.022H286.009H285.996H285.982H285.969H285.956H285.943H285.93H285.917H285.903H285.89H285.877H285.864H285.851H285.838H285.824H285.811H285.798H285.785H285.772H285.758H285.745H285.732H285.719H285.706H285.692H285.679H285.666H285.653H285.64H285.626H285.613H285.6H285.587H285.574H285.56H285.547H285.534H285.521H285.507H285.494H285.481H285.468H285.454H285.441H285.428H285.415H285.402H285.388H285.375H285.362H285.349H285.335H285.322H285.309H285.295H285.282H285.269H285.256H285.242H285.229H285.216H285.203H285.189H285.176H285.163H285.149H285.136H285.123H285.11H285.096H285.083H285.07H285.056H285.043H285.03H285.016H285.003H284.99H284.977H284.963H284.95H284.937H284.923H284.91H284.897H284.883H284.87H284.857H284.843H284.83H284.817H284.803H284.79H284.777H284.763H284.75H284.737H284.723H284.71H284.697H284.683H284.67H284.657H284.643H284.63H284.616H284.603H284.59H284.576H284.563H284.55H284.536H284.523H284.509H284.496H284.483H284.469H284.456H284.442H284.429H284.416H284.402H284.389H284.376H284.362H284.349H284.335H284.322H284.308H284.295H284.282H284.268H284.255H284.241H284.228H284.215H284.201H284.188H284.174H284.161H284.147H284.134H284.121H284.107H284.094H284.08H284.067H284.053H284.04H284.026H284.013H283.999H283.986H283.973H283.959H283.946H283.932H283.919H283.905H283.892H283.878H283.865H283.851H283.838H283.824H283.811H283.797H283.784H283.77H283.757H283.743H283.73H283.716H283.703H283.689H283.676H283.662H283.649H283.635H283.622H283.608H283.595H283.581H283.568H283.554H283.541H283.527H283.514H283.5H283.487H283.473H283.46H283.446H283.433H283.419H283.405H283.392H283.378H283.365H283.351H283.338H283.324H283.311H283.297H283.283H283.27H283.256H283.243H283.229H283.216H283.202H283.188H283.175H283.161H283.148H283.134H283.121H283.107H283.093H283.08H283.066H283.053H283.039H283.025H283.012H282.998H282.985H282.971H282.957H282.944H282.93H282.917H282.903H282.889H282.876H282.862H282.849H282.835H282.821H282.808H282.794H282.78H282.767H282.753H282.739H282.726H282.712H282.699H282.685H282.671H282.658H282.644H282.63H282.617H282.603H282.589H282.576H282.562H282.548H282.535H282.521H282.507H282.494H282.48H282.466H282.453H282.439H282.425H282.412H282.398H282.384H282.371H282.357H282.343H282.329H282.316H282.302H282.288H282.275H282.261H282.247H282.234H282.22H282.206H282.192H282.179H282.165H282.151H282.137H282.124H282.11H282.096H282.083H282.08C278.323 253.513 275.875 252.62 274.57 251.151C273.465 249.876 273.158 247.822 273.866 244.811C275.332 239.305 275.239 233.613 273.593 227.746C271.759 220.787 268.251 216.034 263.031 213.591L263.02 213.586L263.01 213.582C260.773 212.658 258.536 212.19 256.298 212.19C252.915 212.19 249.822 213.419 247.033 215.832L247.02 215.844L247.007 215.857L242.111 220.753L242.102 220.762L242.092 220.772L242.083 220.781L242.073 220.791L242.064 220.8L242.054 220.81L242.044 220.819L242.035 220.829L242.025 220.838L242.016 220.848L242.006 220.857L241.997 220.867L241.987 220.876L241.978 220.886L241.968 220.896L241.959 220.905L241.949 220.915L241.94 220.924L241.93 220.934L241.921 220.943L241.911 220.953L241.902 220.962L241.892 220.972L241.883 220.981L241.873 220.991L241.864 221L241.854 221.01L241.845 221.019L241.835 221.029L241.825 221.038L241.816 221.048L241.806 221.057L241.797 221.067L241.787 221.076L241.778 221.086L241.768 221.095L241.759 221.105L241.749 221.115L241.74 221.124L241.73 221.134L241.721 221.143L241.711 221.153L241.702 221.162L241.692 221.172L241.683 221.181L241.673 221.191L241.664 221.2L241.654 221.21L241.645 221.219L241.635 221.229L241.626 221.238L241.616 221.248L241.606 221.257L241.597 221.267L241.587 221.276L241.578 221.286L241.568 221.295L241.559 221.305L241.549 221.314L241.54 221.324L241.53 221.333L241.521 221.343L241.511 221.353L241.502 221.362L241.492 221.372L241.483 221.381L241.473 221.391L241.464 221.4L241.454 221.41L241.445 221.419L241.435 221.429L241.426 221.438L241.416 221.448L241.407 221.457L241.397 221.467L241.387 221.476L241.378 221.486L241.368 221.495L241.359 221.505L241.349 221.514L241.34 221.524L241.33 221.533L241.321 221.543L241.311 221.552L241.302 221.562L241.292 221.572L241.283 221.581L241.273 221.591L241.264 221.6L241.254 221.61L241.245 221.619L241.235 221.629L241.226 221.638L241.216 221.648L241.207 221.657L241.197 221.667L241.188 221.676L241.178 221.686L241.169 221.695L241.159 221.705L241.149 221.714L241.14 221.724L241.13 221.733L241.121 221.743L241.111 221.752L241.102 221.762L241.092 221.771L241.083 221.781L241.073 221.791L241.064 221.8L241.054 221.81L241.045 221.819L241.035 221.829L241.026 221.838L241.016 221.848L241.007 221.857L240.997 221.867L240.988 221.876L240.978 221.886L240.969 221.895L240.959 221.905L240.95 221.914L240.94 221.924L240.93 221.933L240.921 221.943L240.911 221.952L240.902 221.962L240.892 221.971L240.883 221.981L240.873 221.99L240.864 222L240.854 222.01L240.845 222.019L240.835 222.029L240.826 222.038L240.816 222.048L240.807 222.057L240.797 222.067L240.788 222.076L240.778 222.086L240.769 222.095L240.759 222.105L240.75 222.114L240.74 222.124L240.731 222.133L240.721 222.143L240.711 222.152L240.702 222.162L240.692 222.171L240.683 222.181L240.673 222.19L240.664 222.2L240.654 222.209L240.645 222.219L240.635 222.229L240.626 222.238L240.616 222.248L240.607 222.257L240.597 222.267L240.588 222.276L240.578 222.286L240.569 222.295L240.559 222.305L240.55 222.314L240.54 222.324L240.531 222.333L240.521 222.343L240.512 222.352L240.502 222.362L240.492 222.371L240.483 222.381L240.473 222.39L240.464 222.4L240.454 222.409L240.445 222.419L240.435 222.428L240.426 222.438L240.416 222.448L240.407 222.457L240.397 222.467L240.388 222.476L240.378 222.486L240.369 222.495L240.359 222.505L240.35 222.514L240.34 222.524L240.331 222.533L240.321 222.543L240.312 222.552L240.302 222.562L240.293 222.571L240.283 222.581L240.273 222.59L240.264 222.6L240.254 222.609L240.245 222.619L240.235 222.628L240.226 222.638L240.216 222.647L240.207 222.657L240.197 222.667L240.188 222.676L240.178 222.686L240.169 222.695L240.159 222.705L240.15 222.714L240.14 222.724L240.131 222.733L240.121 222.743L240.112 222.752L240.102 222.762L240.093 222.771L240.083 222.781L240.074 222.79L240.064 222.8L240.054 222.809L240.045 222.819L240.035 222.828L240.026 222.838L240.016 222.847L240.007 222.857L239.997 222.866L239.988 222.876L239.978 222.886L239.969 222.895L239.959 222.905L239.95 222.914L239.94 222.924L239.931 222.933L239.921 222.943L239.912 222.952L239.902 222.962L239.893 222.971L239.883 222.981L239.874 222.99L239.864 223L239.855 223.009L239.845 223.019L239.835 223.028L239.826 223.038L239.816 223.047L239.807 223.057L239.797 223.066L239.788 223.076L239.778 223.085L239.769 223.095L239.759 223.104L239.75 223.114L239.74 223.124L239.731 223.133L239.721 223.143L239.712 223.152L239.702 223.162L239.693 223.171L239.683 223.181L239.674 223.19L239.664 223.2L239.655 223.209L239.645 223.219L239.636 223.228L239.626 223.238L239.616 223.247L239.607 223.257L239.597 223.266L239.588 223.276L239.578 223.285L239.569 223.295L239.559 223.304L239.55 223.314L239.54 223.323L239.531 223.333L239.521 223.343L239.512 223.352L239.502 223.362L239.493 223.371L239.483 223.381L239.474 223.39L239.464 223.4L239.455 223.409L239.445 223.419L239.436 223.428L239.426 223.438L239.417 223.447L239.407 223.457L239.398 223.466L239.388 223.476L239.378 223.485L239.369 223.495L239.359 223.504L239.35 223.514L239.34 223.523L239.331 223.533L239.321 223.542L239.312 223.552L239.302 223.562L239.293 223.571L239.283 223.581L239.274 223.59L239.264 223.6L239.255 223.609L239.245 223.619L239.236 223.628L239.226 223.638L239.217 223.647L239.207 223.657L239.198 223.666L239.188 223.676L239.179 223.685L239.169 223.695L239.159 223.704L239.15 223.714L239.14 223.723L239.131 223.733L239.121 223.742L239.112 223.752L239.102 223.761L239.093 223.771L239.083 223.781L239.074 223.79L239.064 223.8L239.055 223.809L239.045 223.819L239.036 223.828L239.026 223.838L239.017 223.847L239.007 223.857L238.998 223.866L238.988 223.876L238.979 223.885L238.969 223.895L238.96 223.904L238.95 223.914L238.94 223.923L238.931 223.933L238.921 223.942L238.912 223.952L238.902 223.961L238.893 223.971L238.883 223.98L238.874 223.99L238.864 224L238.855 224.009L238.845 224.019L238.836 224.028L238.826 224.038L238.817 224.047L238.807 224.057L238.798 224.066L238.788 224.076L238.779 224.085L238.769 224.095L238.76 224.104L238.75 224.114L238.741 224.123L238.731 224.133L238.721 224.142L238.712 224.152L238.702 224.161L238.693 224.171L238.683 224.18L238.674 224.19L238.664 224.199L238.655 224.209L238.645 224.219L238.636 224.228L238.626 224.238L238.617 224.247L238.607 224.257L238.598 224.266L238.588 224.276L238.579 224.285L238.569 224.295L238.56 224.304L238.55 224.314L238.541 224.323L238.531 224.333L238.522 224.342L238.512 224.352L238.502 224.361L238.493 224.371L238.483 224.38L238.474 224.39L238.464 224.399L238.455 224.409L238.445 224.418L238.436 224.428L238.426 224.438L238.417 224.447L238.407 224.457L238.398 224.466L238.388 224.476L238.379 224.485L238.369 224.495L238.36 224.504L238.35 224.514L238.341 224.523L238.331 224.533L238.322 224.542L238.312 224.552L238.303 224.561L238.293 224.571L238.283 224.58L238.274 224.59L238.264 224.599L238.255 224.609L238.245 224.618L238.236 224.628L238.226 224.637L238.217 224.647L238.207 224.656L238.198 224.666L238.188 224.676L238.179 224.685L238.169 224.695L238.16 224.704L238.15 224.714L238.141 224.723L238.131 224.733L238.122 224.742L238.112 224.752L238.103 224.761L238.093 224.771L238.084 224.78L238.074 224.79L238.064 224.799L238.055 224.809L238.045 224.818L238.036 224.828L238.026 224.837L238.017 224.847L238.007 224.856L237.998 224.866L237.988 224.875L237.979 224.885L237.969 224.895L237.96 224.904L237.95 224.914L237.941 224.923L237.931 224.933L237.922 224.942L237.912 224.952L237.903 224.961L237.893 224.971L237.884 224.98L237.874 224.99L237.865 224.999L237.855 225.009L237.846 225.018L237.836 225.028L237.826 225.037L237.817 225.047L237.807 225.056L237.798 225.066L237.788 225.075L237.779 225.085L237.769 225.094L237.76 225.104L237.75 225.114L237.741 225.123L237.731 225.133L237.722 225.142L237.712 225.152L237.703 225.161L237.693 225.171L237.684 225.18L237.674 225.19L237.665 225.199L237.655 225.209L237.646 225.218L237.636 225.228L237.627 225.237L237.617 225.247L237.607 225.256L237.598 225.266L237.588 225.275L237.579 225.285L237.569 225.294L237.56 225.304L237.55 225.313L237.541 225.323L237.531 225.333L237.522 225.342L237.512 225.352L237.503 225.361L237.493 225.371L237.484 225.38L237.474 225.39L237.465 225.399L237.455 225.409L237.446 225.418L237.436 225.428L237.427 225.437L237.417 225.447L237.408 225.456L237.398 225.466L237.388 225.475L237.379 225.485L237.369 225.494L237.36 225.504L237.35 225.513L237.341 225.523L237.331 225.532L237.322 225.542L237.312 225.552L237.303 225.561L237.293 225.571L237.284 225.58L237.274 225.59L237.265 225.599L237.255 225.609L237.246 225.618L237.236 225.628L237.236 225.628L237.231 225.632C223.776 239.455 216.494 255.655 215.403 274.223H215.403L215.403 274.228C215.224 277.875 215.403 281.435 215.95 284.913L215.95 284.913C216.519 288.518 218.703 291.52 222.401 293.921L222.403 293.923C225.001 295.594 227.718 296.44 230.548 296.44C232.779 296.44 234.873 296.016 236.829 295.17ZM236.829 295.17C236.829 295.17 236.829 295.17 236.83 295.169L236.631 294.71L236.827 295.171C236.827 295.17 236.828 295.17 236.829 295.17ZM253.52 243.577L253.521 243.577C254.776 244.739 256.038 245.954 257.299 247.211L258.924 248.835C259.405 249.316 259.899 249.965 260.402 250.788V250.788V250.791V250.795V250.798V250.801V250.804V250.808V250.811V250.814V250.817V250.821V250.824V250.827V250.83V250.834V250.837V250.84V250.843V250.847V250.85V250.853V250.856V250.86V250.863V250.866V250.869V250.873V250.876V250.879V250.882V250.886V250.889V250.892V250.895V250.899V250.902V250.905V250.908V250.912V250.915V250.918V250.921V250.925V250.928V250.931V250.934V250.938V250.941V250.944V250.947V250.951V250.954V250.957V250.96V250.964V250.967V250.97V250.973V250.977V250.98V250.983V250.986V250.99V250.993V250.996V250.999V251.002V251.006V251.009V251.012V251.015V251.019V251.022V251.025V251.028V251.032V251.035V251.038V251.041V251.045V251.048V251.051V251.054V251.058V251.061V251.064V251.067V251.07V251.074V251.077V251.08V251.083V251.087V251.09V251.093V251.096V251.1V251.103V251.106V251.109V251.113V251.116V251.119V251.122V251.125V251.129V251.132V251.135V251.138V251.142V251.145V251.148V251.151V251.155V251.158V251.161V251.164V251.167V251.171V251.174V251.177V251.18V251.184V251.187V251.19V251.193V251.197V251.2V251.203V251.206V251.209V251.213V251.216V251.219V251.222V251.226V251.229V251.232V251.235V251.238V251.242V251.245V251.248V251.251V251.255V251.258V251.261V251.264V251.268V251.271V251.274V251.277V251.28V251.284V251.287V251.29V251.293V251.297V251.3V251.303V251.306V251.309V251.313V251.316V251.319V251.322V251.326V251.329V251.332V251.335V251.338V251.342V251.345V251.348V251.351V251.354V251.358V251.361V251.364V251.367V251.371V251.374V251.377V251.38V251.383V251.387V251.39V251.393V251.396V251.4V251.403V251.406V251.409V251.412V251.416V251.419V251.422V251.425V251.428V251.432V251.435V251.438V251.441V251.445V251.448V251.451V251.454V251.457V251.461V251.464V251.467V251.47V251.473V251.477V251.48V251.483V251.486V251.49V251.493V251.496V251.499V251.502V251.506V251.509V251.512V251.515V251.518V251.522V251.525V251.528V251.531V251.534V251.538V251.541V251.544V251.547V251.551V251.554V251.557V251.56V251.563V251.567V251.57V251.573V251.576V251.579V251.583V251.586V251.589V251.592V251.595V251.599V251.602V251.605V251.608V251.611V251.615V251.618V251.621V251.624V251.627V251.631V251.634V251.637V251.64V251.643V251.647V251.65V251.653V251.656V251.659V251.663V251.666V251.669V251.672V251.675V251.679V251.682V251.685V251.688V251.691V251.695V251.698V251.701V251.704V251.707V251.711V251.714V251.717V251.72V251.723V251.727V251.73V251.733V251.736V251.739V251.743V251.746V251.749V251.752V251.755V251.759V251.762V251.765V251.768V251.771V251.775V251.778V251.781V251.784V251.787V251.791V251.794V251.797V251.8V251.803V251.807V251.81V251.813V251.816V251.819V251.823V251.826V251.829V251.832V251.835V251.839V251.842V251.845V251.848V251.851V251.855V251.858V251.861V251.864V251.867V251.87V251.874V251.877V251.88V251.883V251.886V251.89V251.893V251.896V251.899V251.902V251.906V251.909V251.912V251.915V251.918V251.922V251.925V251.928V251.931V251.934V251.937V251.941V251.944V251.947V251.95V251.953V251.957V251.96V251.963V251.966V251.969V251.973V251.976V251.979V251.982V251.985V251.988V251.992V251.995V251.998V252.001V252.004V252.008V252.011V252.014V252.017V252.02V252.024V252.027V252.03V252.033V252.036V252.039V252.043V252.046V252.049V252.052V252.055V252.059V252.062V252.065V252.068V252.071V252.074V252.078V252.081V252.084V252.087V252.09V252.094V252.097V252.1V252.103V252.106V252.109V252.113V252.116V252.119V252.122V252.125V252.129V252.132V252.135V252.138V252.141V252.144V252.148V252.151V252.154V252.157V252.16V252.164V252.167V252.17V252.173V252.176V252.179V252.183V252.186V252.189V252.192V252.195V252.198V252.202V252.205V252.208V252.211V252.214V252.218V252.221V252.224V252.227V252.23V252.233V252.237V252.24V252.243V252.246V252.249V252.252V252.256V252.259V252.262V252.265V252.268V252.272V252.275V252.278V252.281V252.284V252.287V252.291V252.294C260.402 252.916 260.379 253.416 260.336 253.797C260.292 254.191 260.231 254.412 260.183 254.51L260.177 254.523L260.171 254.536C257.653 260.464 254.323 266.679 250.169 273.17L250.168 273.17C246.067 279.584 240.183 284.682 232.495 288.449L232.491 288.451C231.094 289.149 229.817 289.481 228.652 289.481C227.117 289.481 225.882 289.067 224.907 288.258C223.41 286.751 222.632 284.638 222.631 281.84C222.808 273.239 224.56 265.362 227.877 258.191L227.877 258.191C231.204 250.993 235.476 243.707 240.695 236.328C241.527 235.333 242.389 234.898 243.277 234.898C244.03 234.898 244.777 235.199 245.53 235.857C246.325 236.56 247.076 237.351 247.782 238.231C248.148 238.692 248.476 239.069 248.765 239.358C249.023 239.616 249.274 239.829 249.514 239.96C250.936 241.208 252.271 242.415 253.52 243.577ZM262.603 241.327L262.59 241.383V241.44C262.59 241.924 262.506 242.471 262.338 243.073C262.147 243.73 262.053 244.433 262.048 245.169L262.004 245.346L261.527 244.878C261.526 244.877 261.526 244.877 261.525 244.876C260.962 244.313 260.348 243.807 259.694 243.346C259.072 242.89 258.491 242.485 257.951 242.121C255.991 240.519 254.216 238.789 252.616 236.927C251.125 235.184 250.768 233.066 251.622 230.487C251.944 229.688 252.647 228.758 253.783 227.703C254.878 226.695 256.073 226.21 257.381 226.21C258.301 226.21 259.063 226.585 259.7 227.378L259.723 227.407L259.75 227.432C262.233 229.726 263.402 231.999 263.402 234.252C263.402 236.663 263.136 239.021 262.603 241.327Z" fill="#EBB63B" stroke="#E6C068"/>
<path d="M636.387 268.293L636.387 268.294C635.006 269.276 633.907 270.086 633.083 270.729C630.287 273.207 627.397 275.601 624.424 277.906M636.387 268.293L624.118 277.511M636.387 268.293C637.851 267.248 638.701 266.044 638.701 264.657C638.701 263.495 638.465 262.519 637.76 262.04C637.474 261.831 637.125 261.764 636.77 261.776C636.41 261.788 636.006 261.881 635.566 262.034C634.687 262.341 633.577 262.921 632.248 263.754M636.387 268.293L632.513 264.178M624.424 277.906L624.118 277.511M624.424 277.906C624.424 277.906 624.425 277.906 624.425 277.905L624.118 277.511M624.424 277.906C621.461 280.217 618.487 282.445 615.514 284.584L615.512 284.585C609.239 289.049 602.592 293.01 595.568 296.48C588.538 299.954 581.054 302.762 573.123 304.91L573.115 304.913L573.115 304.913C569.765 305.757 566.26 306.178 562.597 306.178C558.821 306.178 555.093 304.457 551.411 301.115M624.118 277.511C621.159 279.818 618.191 282.042 615.222 284.178C608.972 288.626 602.347 292.574 595.347 296.032C588.347 299.49 580.894 302.287 572.993 304.428C569.685 305.261 566.222 305.678 562.597 305.678C558.982 305.678 555.368 304.032 551.743 300.74M551.411 301.115C551.412 301.116 551.414 301.117 551.416 301.118L551.743 300.74M551.411 301.115C547.727 297.927 545.629 294.479 545.204 290.777M551.411 301.115C551.409 301.113 551.408 301.112 551.406 301.11L551.743 300.74M551.743 300.74C548.118 297.605 546.107 294.261 545.701 290.719M555.93 285.428C554.941 287.235 554.451 289.089 554.451 290.99C554.451 292.881 555.357 294.73 557.18 296.532C560.138 299.657 563.43 300.98 567.055 300.49M555.93 285.428L556.368 285.669C556.368 285.669 556.369 285.668 556.369 285.668M555.93 285.428L556.369 285.668M555.93 285.428C556.93 283.61 557.753 281.876 558.409 280.219M556.369 285.668C555.416 287.407 554.951 289.179 554.951 290.99C554.951 292.706 555.77 294.435 557.532 296.176L557.538 296.182L557.543 296.188C560.413 299.22 563.552 300.459 566.987 299.995M556.369 285.668C557.377 283.836 558.208 282.084 558.873 280.407M566.987 299.995C566.987 299.995 566.987 299.995 566.987 299.995L567.055 300.49M566.987 299.995C566.988 299.995 566.988 299.995 566.988 299.995L567.055 300.49M566.987 299.995C570.601 299.496 573.878 298.926 576.82 298.273M567.055 300.49C570.68 299.99 573.972 299.417 576.93 298.761M576.93 298.761L576.818 298.274C576.818 298.274 576.819 298.274 576.82 298.273M576.93 298.761C583.357 297.277 589.289 295.053 594.722 292.094M576.93 298.761L576.822 298.273C576.821 298.273 576.821 298.273 576.82 298.273M576.82 298.273C583.205 296.799 589.093 294.59 594.482 291.656M594.722 292.094L594.482 291.656C594.482 291.656 594.482 291.656 594.482 291.656M594.722 292.094C600.149 289.126 605.336 285.824 610.284 282.199C610.951 281.714 612.597 280.318 615.222 278.011C617.857 275.709 620.743 273.235 623.868 270.594C627.003 267.959 629.888 265.818 632.513 264.178M594.722 292.094L594.483 291.655C594.483 291.655 594.482 291.655 594.482 291.656M594.482 291.656C599.89 288.697 605.059 285.407 609.989 281.795L609.99 281.794C610.634 281.327 612.259 279.949 614.892 277.636L614.893 277.635C617.531 275.33 620.418 272.855 623.545 270.213L623.546 270.212C626.694 267.566 629.599 265.41 632.248 263.754M632.248 263.754C632.248 263.754 632.248 263.754 632.248 263.754L632.513 264.178M632.248 263.754L632.513 264.178M558.873 280.407C558.872 280.408 558.872 280.409 558.872 280.41L558.409 280.219M558.873 280.407C562.656 271.21 567.004 262.425 571.924 254.056M558.873 280.407C558.873 280.406 558.874 280.405 558.874 280.404L558.409 280.219M558.409 280.219C562.201 271.001 566.56 262.193 571.493 253.803M571.924 254.056C571.924 254.056 571.924 254.056 571.924 254.056L571.493 253.803M571.924 254.056C576.864 245.659 581.971 237.263 587.249 228.86L587.255 228.851L587.261 228.841C587.911 227.692 588.643 226.419 589.465 225.015M571.924 254.056L571.493 253.803M571.493 253.803C576.435 245.402 581.545 237.001 586.826 228.594C587.477 227.443 588.211 226.167 589.034 224.761M589.465 225.015C589.465 225.016 589.464 225.016 589.464 225.017L589.034 224.761M589.465 225.015C589.973 224.16 589.99 223.235 589.56 222.299C589.144 221.391 588.312 220.48 587.135 219.555L587.131 219.553C586.031 218.704 585.002 218.158 584.05 217.974C583.076 217.785 582.192 217.979 581.45 218.58M589.465 225.015C589.465 225.015 589.466 225.014 589.466 225.014L589.034 224.761M589.034 224.761C589.868 223.36 589.128 221.756 586.826 219.949C584.685 218.298 582.998 217.969 581.763 218.969M581.45 218.58C581.451 218.579 581.451 218.579 581.451 218.579L581.763 218.969M581.45 218.58C580.188 219.587 579.131 220.679 578.272 221.861M581.45 218.58C581.45 218.58 581.449 218.581 581.449 218.581L581.763 218.969M581.763 218.969C580.524 219.959 579.493 221.027 578.659 222.178M578.272 221.861C578.278 221.854 578.285 221.847 578.291 221.839L578.659 222.178M578.272 221.861C570.681 230.123 564.159 239.127 558.702 248.871L558.702 248.871C553.25 258.615 549.042 269.105 546.074 280.334M578.272 221.861C578.266 221.869 578.26 221.877 578.254 221.885L578.659 222.178M578.659 222.178C571.086 230.417 564.581 239.397 559.138 249.115C553.706 258.824 549.513 269.277 546.555 280.469M546.074 280.334C546.075 280.331 546.075 280.329 546.076 280.326L546.555 280.469M546.074 280.334C546.073 280.337 546.072 280.339 546.072 280.342L546.555 280.469M546.074 280.334C545.071 283.691 544.78 287.173 545.204 290.777M546.555 280.469C545.571 283.761 545.284 287.178 545.701 290.719M545.204 290.777C545.204 290.777 545.204 290.777 545.204 290.776L545.701 290.719M545.204 290.777C545.204 290.777 545.204 290.778 545.204 290.778L545.701 290.719M591.171 195.751C589.476 197.334 589.203 199.926 590.049 203.279L590.05 203.283C590.562 205.249 591.453 206.742 592.765 207.694C594.078 208.648 595.748 209.011 597.723 208.843L597.733 208.842L597.743 208.841C600.433 208.5 602.658 207.741 604.384 206.525M591.171 195.751C591.172 195.751 591.172 195.75 591.172 195.75L591.513 196.115M591.171 195.751C591.171 195.751 591.171 195.751 591.17 195.752L591.513 196.115M591.171 195.751C592.766 194.246 595.032 193.434 597.894 193.262C599.975 193.089 601.818 193.521 603.395 194.575C605.017 195.656 606.135 197.514 606.809 200.049L606.822 200.098L606.825 200.148C606.998 203.053 606.23 205.237 604.384 206.525M591.513 196.115C590.024 197.506 589.701 199.855 590.534 203.157L597.93 193.761C595.138 193.928 592.998 194.714 591.513 196.115ZM604.384 206.525C604.384 206.525 604.383 206.525 604.383 206.525L604.097 206.115M604.384 206.525C604.384 206.524 604.385 206.524 604.385 206.524L604.097 206.115M604.097 206.115C605.748 204.964 606.493 202.985 606.326 200.178L597.68 208.344C600.316 208.011 602.456 207.272 604.097 206.115Z" fill="#EBB63B" stroke="#E6C068"/>
<path d="M770.896 264.343L770.894 264.347C770.462 264.94 769.994 265.49 769.495 266.005L769.486 266.013L769.486 266.013C768.815 266.674 768.457 267.11 768.333 267.36L768.32 267.385L768.305 267.408C754.589 288.568 735.176 306.235 710.09 320.426L710.089 320.426C707.352 321.965 703.885 322.719 699.719 322.719H699.219C695.015 322.719 691.735 321.626 689.476 319.371C687.039 317.106 685.865 313.745 685.865 309.386C685.865 305.528 686.617 302.035 688.144 298.917C689.634 295.854 691.203 292.915 692.85 290.112L692.857 290.1L692.857 290.1L695.325 286.161C695.826 285.175 696.358 284.189 696.932 283.198L696.933 283.197C697.505 282.216 698.026 281.246 698.506 280.277L698.746 279.578L698.757 279.547L698.772 279.517C699.083 278.894 699.353 278.11 699.587 277.143L699.588 277.138C699.773 276.411 699.471 275.518 698.365 274.406C697.132 273.178 695.695 272.574 694.031 272.574C693.446 272.574 692.767 272.72 691.991 273.037L691.947 273.055L691.9 273.064C688.621 273.718 685.384 274.496 682.189 275.409L682.188 275.409C678.986 276.313 675.732 277.254 672.437 278.236C668.347 279.702 664.382 281.421 660.53 283.394L660.53 283.394C656.674 285.363 652.943 287.416 649.327 289.546L649.312 289.555L649.298 289.562C647.65 290.391 646.05 291.256 644.49 292.152C642.924 293.064 641.311 293.928 639.652 294.75C639.651 294.75 639.65 294.75 639.649 294.751L638.713 295.229C638.019 295.745 637.248 296.173 636.407 296.516L636.401 296.518L636.401 296.518C635.523 296.863 634.644 297.032 633.76 297.032C632.124 297.032 630.449 296.308 628.74 294.943L628.728 294.934L628.716 294.923C626.882 293.259 625.844 291.613 625.844 289.99C625.844 288.549 626.015 287.07 626.356 285.548L626.357 285.543L626.357 285.543L626.585 284.57C626.585 284.569 626.585 284.568 626.585 284.567C629.571 271.004 634.619 258.927 641.738 248.341L642.201 247.616C642.55 246.938 642.975 246.304 643.484 245.707L643.485 245.707C644.064 245.031 644.779 244.657 645.615 244.657C646.202 244.657 646.777 244.85 647.328 245.193C648.523 245.719 649.38 246.446 649.779 247.41C650.662 249.21 650.679 251.285 649.901 253.587C649.157 255.825 648.371 257.706 647.536 259.224C647.292 259.707 647.114 260.098 646.998 260.4C646.875 260.722 646.844 260.889 646.844 260.949V261.041L646.81 261.128L638.165 283.628L638.155 283.654L638.142 283.678C638.007 283.94 637.851 284.418 637.687 285.159C637.627 285.443 637.649 285.678 637.732 285.882C637.815 286.089 637.975 286.299 638.247 286.507C638.811 286.919 639.523 287.136 640.427 287.136C641.347 287.136 642.446 286.951 643.737 286.555C645.052 286.139 645.889 285.782 646.312 285.494L646.356 285.464L646.405 285.444C647.202 285.119 647.91 284.767 648.538 284.378C649.191 283.97 649.844 283.531 650.496 283.053C651.321 282.381 652.107 281.8 652.859 281.303M770.896 264.343L653.135 281.719M770.896 264.343C771.392 263.649 771.554 262.885 771.35 262.077C771.137 261.227 770.43 260.481 769.413 259.803C768.888 259.454 768.369 259.219 767.885 259.219C766.837 259.219 766.001 259.818 765.359 260.826L765.359 260.827C764.793 261.722 764.343 262.578 764.001 263.4L763.587 263.832L763.535 263.886L763.501 263.953C760.548 269.829 756.908 275.097 752.582 279.754C748.22 284.448 744.152 288.684 740.365 292.47C735.767 297.069 730.594 301.618 724.848 306.139C719.139 310.62 712.45 314.009 704.774 316.3L702.785 316.797L702.783 316.797C702.165 316.954 701.556 317.032 700.948 317.032C699.442 317.032 698.087 316.437 696.866 315.201L696.862 315.197C695.948 314.293 695.616 313.376 695.755 312.416L695.755 312.416C695.914 311.313 696.229 310.396 696.687 309.647L696.727 309.582M770.896 264.343L696.727 309.582M652.859 281.303L653.135 281.719M652.859 281.303C652.859 281.303 652.859 281.303 652.858 281.303L653.135 281.719M652.859 281.303C653.63 280.789 654.435 280.359 655.283 280.014M653.135 281.719C653.885 281.219 654.667 280.803 655.49 280.469M655.283 280.014C655.278 280.016 655.272 280.019 655.266 280.022L655.49 280.469M655.283 280.014C655.29 280.011 655.296 280.009 655.302 280.006L655.49 280.469M655.283 280.014L655.49 280.469M660.302 282.949C664.177 280.964 668.167 279.235 672.281 277.761C675.583 276.777 678.844 275.834 682.052 274.928L660.302 282.949ZM660.302 282.949C656.438 284.923 652.698 286.98 649.073 289.115L660.302 282.949ZM696.727 309.582L696.745 309.507M696.727 309.582L696.745 309.507M696.745 309.507L696.985 308.548L696.745 309.507ZM671.611 272.841C671.611 272.841 671.611 272.841 671.611 272.841L671.802 273.303L671.612 272.84C671.612 272.841 671.611 272.841 671.611 272.841ZM690.75 267.371C690.749 267.371 690.748 267.371 690.747 267.371L690.823 267.865L690.753 267.37C690.752 267.37 690.751 267.37 690.75 267.371ZM704.03 271.492C704.03 271.491 704.029 271.49 704.029 271.49L703.656 271.824L704.031 271.493C704.031 271.493 704.031 271.492 704.03 271.492ZM706.369 283.574C706.37 283.571 706.371 283.567 706.372 283.563L705.885 283.449L706.366 283.586C706.367 283.582 706.368 283.578 706.369 283.574ZM698.81 304.11C698.81 304.109 698.81 304.108 698.81 304.108L698.344 303.928L698.809 304.112C698.809 304.111 698.809 304.11 698.81 304.11Z" fill="#EBB63B" stroke="#E6C068"/>
</svg>
