<svg width="132" height="111" viewBox="0 0 132 111" fill="none" xmlns="http://www.w3.org/2000/svg">
<path d="M110.737 15.3953C98.2115 -0.0956659 81.2025 4.75133 70.9935 9.91033C65.4365 12.7183 58.9035 12.7183 53.3465 9.91033C45.7855 6.08933 34.4935 2.44234 24.0575 7.10034C24.0575 7.10034 12.6535 14.0373 9.77654 25.0223C9.39354 26.4853 9.28554 28.0643 9.37554 29.7003C8.83954 47.7993 18.7935 74.5803 28.3035 92.2203C31.5295 92.5833 34.9645 92.7693 38.5895 92.7693C42.4675 92.7693 46.4885 92.5443 50.5905 92.1103L51.4775 88.2953C52.4685 83.8863 56.1165 80.4903 60.6505 79.8603C56.0005 71.8113 46.2405 67.3513 46.2405 67.3513C68.2835 73.0293 72.2105 85.4323 72.7775 87.8713C73.0635 87.7923 73.3505 87.7173 73.6365 87.6373C84.8515 84.4833 95.2785 80.1363 104.167 74.9783C113.328 52.7743 119.568 26.3183 110.737 15.3953Z" fill="url(#paint0_linear_2017_2471)"/>
<path d="M19.035 34.612C17.638 28.144 12.556 23.062 6.08801 21.665L0 20.35L6.08801 19.035C12.556 17.638 17.638 12.556 19.035 6.088L20.35 0L21.665 6.088C23.062 12.556 28.144 17.638 34.612 19.035L40.7 20.35L34.612 21.665C28.144 23.062 23.062 28.144 21.665 34.612L20.35 40.7L19.035 34.612Z" fill="white"/>
<path d="M39.2437 43.2989C37.9097 40.3809 35.5567 38.0279 32.6387 36.6939C35.5567 35.3599 37.9097 33.0079 39.2437 30.0889C40.5777 33.0069 42.9307 35.3599 45.8487 36.6939C42.9297 38.0289 40.5777 40.3809 39.2437 43.2989Z" fill="white"/>
<path d="M40.5205 98.0219C37.3105 98.0219 34.2535 97.8719 31.3535 97.5869C35.9775 105.285 40.1965 110.24 42.6565 110.24C44.1005 110.24 45.3635 108.981 46.4445 107.102C47.2175 105.758 47.7575 104.293 48.1085 102.783L49.2985 97.6619C46.3125 97.8999 43.3775 98.0219 40.5205 98.0219Z" fill="url(#paint1_linear_2017_2471)"/>
<path d="M75.5673 92.8909C75.0553 93.0349 74.5413 93.1719 74.0293 93.3099L76.2313 102.784C76.5823 104.294 77.1223 105.759 77.8953 107.103C78.9763 108.982 80.2393 110.241 81.6833 110.241C85.4563 110.241 93.3653 98.5949 100.53 83.2549C92.9653 87.0959 84.5173 90.3739 75.5673 92.8909Z" fill="url(#paint2_linear_2017_2471)"/>
<path d="M116.382 29.4404C120.41 31.9134 123.16 35.1134 124.248 38.9824C128.529 54.2054 105.512 73.9954 72.8377 83.1844C40.1637 92.3734 10.2057 87.4814 5.92371 72.2584C4.83571 68.3894 5.51369 64.2254 7.66269 60.0154C2.52569 66.5124 0.348693 73.1364 2.02969 79.1144C6.70169 95.7254 39.3917 101.063 75.0457 91.0364C110.7 81.0094 135.816 59.4144 131.144 42.8034C129.463 36.8254 124.152 32.3074 116.382 29.4404Z" fill="url(#paint3_linear_2017_2471)"/>
<defs>
<linearGradient id="paint0_linear_2017_2471" x1="41.5256" y1="-0.694366" x2="95.8476" y2="104.482" gradientUnits="userSpaceOnUse">
<stop stop-color="#D49A98"/>
<stop offset="0.2033" stop-color="#C07573"/>
<stop offset="0.5049" stop-color="#A95557"/>
<stop offset="0.7792" stop-color="#8D4347"/>
<stop offset="1" stop-color="#72383D"/>
</linearGradient>
<linearGradient id="paint1_linear_2017_2471" x1="0.492204" y1="20.4987" x2="54.8141" y2="125.675" gradientUnits="userSpaceOnUse">
<stop stop-color="#D49A98"/>
<stop offset="0.2033" stop-color="#C07573"/>
<stop offset="0.5049" stop-color="#A95557"/>
<stop offset="0.7792" stop-color="#8D4347"/>
<stop offset="1" stop-color="#72383D"/>
</linearGradient>
<linearGradient id="paint2_linear_2017_2471" x1="40.0751" y1="0.0546577" x2="94.3971" y2="105.231" gradientUnits="userSpaceOnUse">
<stop stop-color="#D49A98"/>
<stop offset="0.2033" stop-color="#C07573"/>
<stop offset="0.5049" stop-color="#A95557"/>
<stop offset="0.7792" stop-color="#8D4347"/>
<stop offset="1" stop-color="#72383D"/>
</linearGradient>
<linearGradient id="paint3_linear_2017_2471" x1="2.44256" y1="58.3032" x2="130.589" y2="65.978" gradientUnits="userSpaceOnUse">
<stop stop-color="#D9D9D9"/>
<stop offset="0.1964" stop-color="#EEFFEE" stop-opacity="0.568627"/>
<stop offset="0.5607" stop-color="#D1C7BD"/>
<stop offset="1" stop-color="#AC9C8D"/>
</linearGradient>
</defs>
</svg>
