<svg width="920" height="920" viewBox="0 0 920 920" fill="none" xmlns="http://www.w3.org/2000/svg">
<path fill-rule="evenodd" clip-rule="evenodd" d="M452.092 517.827C451.49 516.788 450.882 515.717 450.279 514.626C444.585 504.371 439.343 492.344 436.569 486.837C430.605 475.314 424.968 463.085 419.732 450.481C412.121 432.173 405.549 413.014 401.226 393.578C396.338 371.587 394.145 349.315 396.628 327.662C397.714 317.749 400.239 307.405 404.458 297.888C408.692 288.318 414.594 279.596 422.469 272.998C426.511 269.6 432.418 266.067 438.112 265.387C442.04 264.919 445.853 265.807 448.897 268.987C445.983 265.522 442.107 264.4 438.045 264.618C432.075 264.945 425.706 268.223 421.28 271.486C412.676 277.845 405.98 286.542 400.998 296.231C396.005 305.92 392.779 316.596 391.064 326.893C386.617 354.63 389.262 383.775 396.343 412.084C399.808 425.95 404.343 439.613 409.591 452.783C414.978 466.295 421.186 479.258 427.576 491.508C430.984 497.862 437.925 512.902 445.006 523.853C448.986 530.004 453.126 534.893 456.69 536.945C458.623 538.041 460.181 537.709 461.376 536.961C462.208 536.436 463.532 535.288 463.631 533.007C463.719 531.085 462.301 525.334 462.161 524.845L458.649 511.016C457.163 504.283 456.181 497.545 455.771 490.77C455.365 483.996 455.511 477.195 456.342 470.337C458.68 450.642 466.156 433.561 478.063 420.962C490.236 408.088 506.954 399.88 527.522 398.259C506.45 398.747 488.963 406.281 475.85 418.759C462.639 431.327 453.926 448.912 450.409 469.48C449.194 476.686 448.684 483.86 448.804 491.04C448.923 498.21 449.692 505.369 450.975 512.548L452.092 517.827Z" fill="#E6C068"/>
<path fill-rule="evenodd" clip-rule="evenodd" d="M435.504 283.98L435.8 284.941C437.088 286.199 439.047 286.827 441.182 287.108C444.263 287.508 447.707 287.17 449.983 286.926C455.718 286.318 461.516 285.378 467.252 284.152C473.003 282.921 478.686 281.404 484.188 279.637C506.943 272.265 541.408 254.155 572.626 249.536C593.303 246.471 612.567 249.38 625.373 266.971C630.947 274.572 634.2 283.487 636.08 292.849C638.979 307.255 638.558 322.747 637.519 336.556C636.402 352.619 634.329 368.943 631.42 385.224C629.508 395.921 627.217 406.597 624.521 417.159C617.731 443.764 608.322 469.657 595.578 493.212C590.123 503.4 577.172 522.689 562.417 535.168C552.484 543.569 541.834 549.107 532.124 545.356C526.591 543.221 523.474 538.504 521.614 532.95C518.612 523.988 518.767 512.902 518.669 505.145C518.476 490.095 520.342 466.342 518.232 444.943C516.752 429.914 513.318 416.058 505.894 407.164C512.881 416.271 515.697 430.132 516.575 445.073C517.837 466.498 515.11 490.11 514.736 505.124C514.533 513.276 514.014 524.923 516.83 534.457C518.96 541.657 522.996 547.637 529.994 550.614C541.434 555.471 554.625 550.156 566.787 540.499C582.731 527.843 596.945 507.894 603.002 497.326C616.598 473.371 627.004 447.001 634.35 419.741C637.26 408.946 639.675 398.01 641.624 387.043C644.58 370.382 646.424 353.643 647.427 337.2C648.237 322.56 648.346 306.143 644.928 290.963C642.553 280.411 638.496 270.447 631.96 262.01C616.754 242.502 594.965 239.089 571.603 243.432C540.218 249.266 506.122 269.044 483.424 277.44C478.073 279.435 472.525 281.196 466.899 282.666C461.262 284.141 455.552 285.336 449.889 286.204C447.655 286.542 444.273 287.035 441.219 286.775C439.115 286.599 437.161 286.074 435.847 284.895L435.504 283.98Z" fill="#E6C068"/>
<path d="M273.711 644.092V641.91H275.394C277.94 641.91 279.509 641.702 280.091 641.286C280.683 640.86 280.984 639.951 280.984 638.564V601.345C280.984 599.989 280.678 599.101 280.07 598.685C279.472 598.259 277.914 598.041 275.394 598.041H273.711V595.817H299.542C305.568 595.817 310.68 598.223 314.878 603.028C319.076 607.839 321.175 613.616 321.175 620.36C321.175 626.958 319.06 632.558 314.836 637.171C310.623 641.785 305.527 644.092 299.542 644.092H273.711ZM287.052 639.083C287.052 640.304 287.224 641.078 287.572 641.411C287.915 641.743 288.891 641.91 290.502 641.91H297.651C300.752 641.91 303.35 641.276 305.443 639.998C307.532 638.725 309.122 637.353 310.202 635.883C312.805 632.34 314.109 627.165 314.109 620.36C314.109 613.211 312.888 607.953 310.452 604.587C307.293 600.223 302.996 598.041 297.567 598.041H290.502C288.891 598.041 287.915 598.202 287.572 598.519C287.224 598.841 287.052 599.62 287.052 600.867V639.083Z" fill="#E6C068"/>
<path d="M348.5 644.091V641.909H350.183C352.745 641.909 354.319 641.701 354.901 641.286C355.482 640.86 355.773 639.951 355.773 638.564V601.553C355.773 600.197 355.472 599.308 354.88 598.893C354.282 598.467 352.719 598.248 350.183 598.248H348.5V596.025H388.275L390.249 611.943H388.483C388.16 609.242 387.786 607.117 387.36 605.563C386.929 604.015 386.202 602.644 385.178 601.449C384.165 600.259 382.82 599.428 381.147 598.955C379.484 598.487 377.308 598.248 374.622 598.248H365.499C363.888 598.248 362.912 598.415 362.569 598.747C362.221 599.08 362.049 599.859 362.049 601.075V618.011H368.408C371.65 618.011 373.728 617.45 374.642 616.328C375.567 615.195 376.035 613.003 376.035 609.761H377.822V628.464H376.035C376.035 625.264 375.567 623.092 374.642 621.939C373.728 620.791 371.65 620.214 368.408 620.214H362.049V639.083C362.049 640.304 362.226 641.078 362.589 641.41C362.948 641.743 363.919 641.909 365.499 641.909H374.933C376.954 641.909 378.705 641.779 380.191 641.514C381.672 641.255 382.924 640.797 383.952 640.143C384.991 639.493 385.864 638.787 386.571 638.023C387.277 637.265 387.87 636.194 388.358 634.823C388.857 633.451 389.241 632.137 389.522 630.875C389.813 629.617 390.124 627.944 390.457 625.866H392.202L389.251 644.091H348.5Z" fill="#E6C068"/>
<path d="M417.582 644.092V641.91C419.286 641.91 420.678 641.743 421.759 641.411C422.84 641.078 423.572 640.6 423.962 639.977C424.346 639.343 424.59 638.813 424.689 638.398C424.798 637.972 424.855 637.395 424.855 636.673V599.787C424.855 599.122 424.762 598.716 424.585 598.56C424.419 598.394 423.931 598.264 423.131 598.166C421.728 598.083 420.559 598.041 419.619 598.041H417.582V595.817H429.593C430.258 595.817 430.679 595.869 430.861 595.963C431.038 596.062 431.297 596.327 431.63 596.753L456.567 633.431V603.236C456.567 602.53 456.515 601.969 456.422 601.553C456.338 601.137 456.089 600.613 455.674 599.974C455.268 599.324 454.531 598.841 453.45 598.519C452.369 598.202 450.982 598.041 449.294 598.041V595.817C454.24 595.958 456.988 596.025 457.544 596.025C458.11 596.025 460.869 595.958 465.815 595.817V598.041C464.111 598.041 462.718 598.202 461.638 598.519C460.557 598.841 459.814 599.324 459.414 599.974C459.024 600.613 458.775 601.148 458.666 601.574C458.567 602.005 458.52 602.561 458.52 603.236V642.263C458.52 643.027 458.469 643.525 458.375 643.759C458.292 643.982 458.022 644.092 457.565 644.092C457.242 644.092 456.842 643.78 456.359 643.156L427.515 600.805C427.333 600.529 427.105 600.239 426.83 599.932V636.673C426.83 637.395 426.871 637.972 426.954 638.398C427.048 638.813 427.297 639.343 427.702 639.977C428.102 640.6 428.845 641.078 429.926 641.411C431.007 641.743 432.399 641.91 434.103 641.91V644.092C429.157 643.956 426.398 643.884 425.832 643.884C425.276 643.884 422.528 643.956 417.582 644.092Z" fill="#E6C068"/>
<path d="M491.832 612.151L493.183 596.274H536.324L537.675 612.151H535.929C535.732 610.031 535.545 608.364 535.368 607.143C535.202 605.927 534.916 604.732 534.516 603.569C534.111 602.405 533.664 601.548 533.165 600.992C532.677 600.425 531.965 599.921 531.025 599.475C530.079 599.017 528.999 598.737 527.783 598.623C526.562 598.514 525.03 598.456 523.19 598.456C521.029 598.456 519.684 598.498 519.159 598.581C518.577 598.721 518.213 598.992 518.078 599.392C517.938 599.797 517.871 600.425 517.871 601.283V638.501C517.871 639.447 517.964 640.112 518.161 640.496C518.354 640.87 518.993 641.203 520.073 641.494C521.164 641.774 522.905 641.909 525.289 641.909H528.116V644.091C526.188 643.956 521.72 643.884 514.712 643.884C507.74 643.884 503.288 643.956 501.35 644.091V641.909H504.176C506.571 641.909 508.317 641.774 509.413 641.494C510.504 641.203 511.143 640.87 511.325 640.496C511.501 640.112 511.595 639.447 511.595 638.501V601.283C511.595 600.618 511.564 600.15 511.512 599.87C511.47 599.594 511.345 599.34 511.138 599.101C510.94 598.851 510.608 598.685 510.14 598.602C509.667 598.508 508.394 598.456 506.316 598.456C504.472 598.456 502.934 598.514 501.703 598.623C500.482 598.737 499.401 599.017 498.461 599.475C497.516 599.921 496.799 600.425 496.3 600.992C495.801 601.548 495.349 602.405 494.949 603.569C494.544 604.732 494.263 605.927 494.097 607.143C493.941 608.364 493.775 610.031 493.598 612.151H491.832Z" fill="#E6C068"/>
<path d="M563.613 644.091V641.909C567.795 641.826 570.429 640.242 571.51 637.15L586.14 594.924C586.316 594.357 586.514 593.983 586.722 593.801C586.93 593.609 587.293 593.51 587.823 593.51C588.098 593.51 588.322 593.542 588.488 593.594C588.665 593.635 588.81 593.739 588.924 593.905C589.034 594.061 589.112 594.186 589.153 594.279C589.205 594.363 589.304 594.581 589.444 594.924L604.697 639.083C605.056 640.262 605.617 641.031 606.38 641.39C607.139 641.738 608.588 641.909 610.724 641.909H611.971V644.091C609.004 643.956 605.923 643.884 602.723 643.884C597.637 643.884 594.244 643.956 592.54 644.091V641.909C596.458 641.909 598.421 641.198 598.421 639.769C598.421 639.686 598.349 639.353 598.214 638.771L594.473 627.986H577.017L573.754 637.234C573.656 637.415 573.609 637.769 573.609 638.293C573.609 639.281 574.066 640.133 574.98 640.849C575.905 641.556 577.225 641.909 578.929 641.909V644.091C574.399 643.956 571.681 643.884 570.783 643.884C569.245 643.884 566.855 643.956 563.613 644.091ZM577.786 625.804H593.683L585.724 602.82L577.786 625.804Z" fill="#E6C068"/>
<path d="M637.715 644.092V641.91H639.398C641.959 641.91 643.534 641.702 644.115 641.286C644.697 640.86 644.988 639.951 644.988 638.564V601.345C644.988 599.989 644.687 599.101 644.095 598.685C643.497 598.259 641.933 598.041 639.398 598.041H637.715V595.817C639.362 595.958 642.936 596.025 648.438 596.025C654.641 596.025 658.6 595.958 660.304 595.817V598.041H657.955C655.794 598.041 654.22 598.181 653.238 598.457C652.251 598.737 651.68 599.059 651.513 599.433C651.347 599.807 651.264 600.467 651.264 601.407V639.083C651.264 640.304 651.441 641.078 651.804 641.411C652.163 641.743 653.134 641.91 654.714 641.91H660.512C662.907 641.91 664.964 641.556 666.683 640.85C668.413 640.133 669.738 639.327 670.653 638.439C671.577 637.54 672.346 636.247 672.959 634.553C673.567 632.865 673.967 631.477 674.165 630.397C674.357 629.316 674.544 627.81 674.726 625.867H676.492L674.518 644.092H637.715Z" fill="#E6C068"/>
<path d="M247.089 484.834C247.987 484.834 248.616 484.927 248.98 485.104C249.338 485.286 249.608 485.374 249.79 485.374C249.967 486.455 249.109 487.359 247.213 488.076C245.327 488.798 243.753 489.338 242.496 489.696C241.774 489.878 241.234 490.06 240.875 490.237C234.376 492.595 228.199 495.12 222.339 497.822C216.478 500.523 211.117 504.046 206.254 508.378C197.235 516.124 190.024 526.219 184.621 538.656C170.724 571.116 149.175 602.225 119.972 631.983C116.715 635.224 113.198 638.284 109.416 641.168C105.634 644.061 101.036 645.958 95.6173 646.862C93.9964 647.038 92.469 647.132 91.0247 647.132C86.7023 647.132 83.0034 645.594 79.9278 642.519C77.4081 639.994 76.1041 637.427 76.021 634.809C75.9275 632.201 76.1457 629.728 76.686 627.39C78.3069 621.249 80.8785 615.836 84.3957 611.139C87.918 606.453 91.6586 601.954 95.6173 597.632C111.494 579.953 126.685 563.811 141.19 549.213C155.705 534.609 171.623 521.361 188.944 509.459C193.084 506.747 195.874 503.048 197.319 498.362C198.758 493.681 199.937 488.902 200.851 484.023L201.662 479.971C202.02 477.633 201.563 475.83 200.29 474.568C199.927 474.017 199.298 473.519 198.399 473.072C197.495 472.615 196.238 472.386 194.617 472.386C194.077 472.386 193.625 472.386 193.266 472.386C189.302 472.75 185.333 474.464 181.359 477.54C177.395 480.605 174.106 484.252 171.488 488.491C168.88 492.73 167.67 496.835 167.851 500.793C167.851 502.955 167.394 504.217 166.48 504.576C166.116 504.576 165.758 504.576 165.399 504.576C164.495 504.576 163.955 504.217 163.778 503.495C163.238 502.238 162.516 500.887 161.617 499.443C160.713 498.004 159.633 497.281 158.375 497.281C157.653 497.281 156.973 497.604 156.339 498.237C155.715 498.861 155.134 499.536 154.593 500.253C154.053 501.157 153.689 501.697 153.513 501.874C152.432 502.778 151.299 503.724 150.125 504.721C148.946 505.708 147.819 506.648 146.738 507.547C143.496 510.264 140.203 512.971 136.867 515.672C133.527 518.374 129.874 520.717 125.916 522.696C124.295 523.419 122.715 524.099 121.178 524.733C119.65 525.372 118.081 525.689 116.46 525.689C113.562 525.689 110.767 524.603 108.065 522.426C104.465 519.548 102.662 516.535 102.662 513.387C102.662 510.228 102.932 507.204 103.472 504.305C107.436 487.005 116.627 475.191 131.049 468.874C134.841 467.253 138.27 466.443 141.335 466.443C148.193 466.443 154.952 470.776 161.617 479.431C162.334 480.511 163.098 481.415 163.903 482.132C164.719 482.854 165.576 483.213 166.48 483.213C167.031 483.213 167.94 482.766 169.202 481.862L170.283 481.322C172.984 479.342 175.774 477.451 178.657 475.649C181.536 473.836 184.606 472.209 187.863 470.765C190.383 469.508 192.632 468.874 194.617 468.874C196.955 468.874 199.033 469.596 200.851 471.035C203.189 472.838 204.54 474.958 204.904 477.394C205.262 479.836 205.35 482.402 205.174 485.104C205.174 486.366 205.08 487.676 204.904 489.031C204.722 490.377 204.452 491.775 204.093 493.229L203.283 498.632L204.904 499.173C205.08 498.814 206.202 498.232 208.27 497.427C210.348 496.611 211.927 496.024 213.008 495.661C214.447 495.302 215.346 495.032 215.71 494.85C217.705 493.951 219.601 493.094 221.403 492.273C223.201 491.458 225.004 490.689 226.807 489.967C230.947 488.346 236.085 486.818 242.226 485.374C242.766 485.374 243.483 485.286 244.387 485.104C245.286 484.927 246.185 484.834 247.089 484.834ZM154.053 494.85C155.134 493.951 156.074 492.912 156.879 491.733C157.695 490.559 157.201 488.709 155.404 486.185C153.959 484.205 152.203 482.361 150.125 480.657C148.047 478.942 145.205 478.08 141.605 478.08H141.335C125.651 482.226 115.369 492.227 110.496 508.087C110.133 509.542 109.863 511.22 109.686 513.116C109.504 515.002 110.403 516.753 112.387 518.374C113.645 519.636 115.094 520.265 116.731 520.265C117.629 520.265 118.528 520.088 119.432 519.725C120.331 519.366 121.141 519.008 121.863 518.644C127.085 516.124 131.724 513.241 135.787 509.999C139.844 506.747 143.766 503.495 147.549 500.253C148.447 499.536 149.346 498.772 150.25 497.967C151.164 497.152 151.98 496.383 152.702 495.661C152.879 495.484 153.331 495.214 154.053 494.85ZM103.472 631.442C120.772 616.823 135.646 600.188 148.089 581.527C160.542 562.866 171.992 544.163 182.439 525.419L181.089 524.317C172.621 529.377 164.869 535.103 157.835 541.503C150.796 547.904 144.125 554.351 137.823 560.85C135.48 563.188 133.132 565.531 130.778 567.874C128.435 570.212 126.004 572.555 123.484 574.898C116.803 581.215 110.226 587.792 103.743 594.64C97.2486 601.497 91.6586 609.072 86.9725 617.374L85.6217 619.535C84.0008 622.055 82.6916 624.803 81.6942 627.785C80.6967 630.762 81.7357 633.604 84.8113 636.305C86.614 637.926 88.5934 638.736 90.7546 638.736C92.9158 638.736 94.9471 638.056 96.8434 636.7C98.7448 635.354 100.501 633.962 102.122 632.523L103.472 631.442Z" fill="#E6C068"/>
<path d="M358.25 299.012C360.411 300.997 361.263 302.846 360.806 304.561C360.359 306.28 359.33 308.218 357.709 310.379C355.548 312.904 353.517 315.611 351.621 318.505C349.719 321.388 347.781 324.178 345.802 326.879C345.62 327.061 345.48 327.243 345.386 327.42C345.303 327.601 345.168 327.783 344.992 327.96C335.251 342.023 325.962 356.175 317.124 370.415C297.3 402.698 279.449 436.508 263.572 471.846C247.706 507.189 234.999 543.706 225.44 581.403C218.946 607.363 215.964 631.074 216.504 652.535C216.504 653.434 216.416 654.333 216.234 655.237C216.234 657.216 216.327 659.107 216.504 660.91C216.686 662.723 217.501 664.349 218.956 665.793C220.759 667.955 223.819 669.305 228.141 669.846C228.863 669.846 229.492 670.204 230.032 670.926C230.936 671.643 231.476 672.724 231.653 674.168C231.835 675.789 231.523 676.87 230.718 677.41C229.902 677.961 228.952 678.241 227.871 678.241H227.601C217.683 678.241 211.283 673.55 208.399 664.173C206.96 659.112 206.29 654.239 206.384 649.543C206.467 644.857 206.778 640.264 207.319 635.765L207.589 633.064C209.932 606.007 214.841 579.808 222.322 554.471C229.804 529.149 238.776 504.545 249.234 480.657C259.692 456.759 270.513 433.542 281.693 411C291.252 391.882 301.03 372.992 311.036 354.331C321.052 335.67 333.271 318.494 347.693 302.794C347.87 302.436 348.322 301.807 349.044 300.903C349.761 300.005 350.524 299.153 351.33 298.347C352.145 297.532 353.101 297.121 354.197 297.121C355.278 297.121 356.629 297.755 358.25 299.012Z" fill="#E6C068"/>
<path d="M391.243 489.697C392.682 489.878 393.492 490.149 393.674 490.507C393.851 491.603 393.222 492.601 391.783 493.499C390.339 494.403 388.713 495.172 386.9 495.806C385.097 496.43 383.746 496.835 382.847 497.011C378.161 498.456 373.475 499.173 368.779 499.173C364.456 499.173 360.222 498.726 356.081 497.822C353.905 497.282 352.008 497.011 350.387 497.011C346.065 497.011 342.911 499.266 340.932 503.765C335.695 515.309 327.393 524.775 316.036 532.173C314.592 533.077 312.925 533.924 311.028 534.729C309.142 535.545 307.121 535.955 304.96 535.955C302.243 535.955 299.625 535.145 297.105 533.524C293.505 531.186 291.432 528.302 290.892 524.879C290.351 521.445 290.175 517.928 290.351 514.322C291.432 495.926 298.643 479.878 311.984 466.173C313.605 464.552 315.226 462.931 316.847 461.31C318.468 459.689 320.094 458.063 321.73 456.426C324.432 454.088 327.404 452.914 330.645 452.914C332.807 452.914 334.973 453.366 337.15 454.265C342.189 456.624 345.613 461.221 347.416 468.064C349.037 473.841 349.125 479.431 347.686 484.834C346.964 487.899 347.234 490.154 348.496 491.608C349.935 493.229 352.554 494.133 356.352 494.31C358.689 494.31 360.944 494.31 363.105 494.31C368.342 494.31 373.122 493.951 377.444 493.229C378.343 493.229 379.242 493.053 380.146 492.689C381.044 492.331 381.943 491.879 382.847 491.338C383.928 490.964 385.055 490.559 386.235 490.112C387.409 489.655 388.63 489.426 389.892 489.426C390.432 489.426 390.879 489.52 391.243 489.697ZM335.238 492.419C335.238 491.879 335.238 491.333 335.238 490.777C334.698 489.878 334.157 489.156 333.617 488.616C333.077 488.076 332.537 487.535 331.996 486.995C330.734 485.738 329.471 484.522 328.214 483.358C326.952 482.184 325.601 480.963 324.162 479.701C323.798 479.524 323.258 478.984 322.541 478.08C321.819 477.181 321.05 476.371 320.234 475.649C319.413 474.932 318.556 474.568 317.657 474.568C316.577 474.568 315.584 475.108 314.686 476.189C309.459 483.577 305.178 490.876 301.843 498.092C298.503 505.313 296.741 513.241 296.565 521.886C296.565 524.785 297.375 527.04 298.996 528.661C300.077 529.565 301.433 530.012 303.069 530.012C304.326 530.012 305.677 529.653 307.121 528.931C314.862 525.138 320.806 519.995 324.952 513.512C329.108 507.018 332.443 500.794 334.968 494.85C335.145 494.492 335.238 493.681 335.238 492.419ZM337.42 481.592C337.96 479.254 338.231 476.864 338.231 474.423C338.231 471.986 336.963 469.596 334.428 467.253C333.705 466.354 332.807 465.902 331.726 465.902C330.282 465.902 328.973 466.443 327.798 467.523C326.635 468.604 325.871 469.596 325.513 470.495C324.609 473.212 324.972 475.519 326.593 477.415C328.214 479.301 330.012 481.052 331.996 482.673C332.537 483.036 333.118 483.442 333.742 483.899C334.376 484.345 334.968 484.834 335.508 485.374L336.61 486.455L336.88 485.374C336.88 484.657 336.968 483.982 337.15 483.358C337.327 482.725 337.42 482.132 337.42 481.592Z" fill="#E6C068"/>
<path d="M710.873 502.549C711.357 502.871 711.601 503.603 711.601 504.751C711.601 505.905 710.899 506.975 709.502 507.972C708.115 508.96 707.008 509.775 706.177 510.425C703.392 512.892 700.514 515.277 697.553 517.573C694.602 519.875 691.641 522.093 688.679 524.223C682.445 528.66 675.837 532.598 668.854 536.048C661.872 539.497 654.438 542.287 646.556 544.422C643.257 545.254 639.803 545.669 636.187 545.669C632.581 545.669 628.976 544.027 625.36 540.744C621.744 537.617 619.739 534.281 619.333 530.748C618.918 527.216 619.203 523.808 620.185 520.524C623.136 509.36 627.318 498.933 632.737 489.249C638.166 479.555 644.655 470.598 652.209 462.379C653.04 461.231 654.069 460.166 655.305 459.179C656.536 458.181 658.22 458.509 660.355 460.156C662.651 461.958 663.389 463.558 662.558 464.956C661.737 466.359 661.004 467.631 660.355 468.78C655.087 477.165 649.99 485.545 645.06 493.925C640.14 502.294 635.792 511.079 632.01 520.275C631.355 521.927 630.534 523.657 629.537 525.47C628.55 527.273 628.061 529.122 628.061 531.019C628.061 532.904 628.965 534.749 630.784 536.546C633.734 539.663 637.018 540.983 640.634 540.495C644.25 539.996 647.533 539.424 650.484 538.77C656.895 537.289 662.812 535.071 668.231 532.12C673.644 529.159 678.819 525.865 683.754 522.249C684.419 521.766 686.061 520.374 688.679 518.072C691.308 515.776 694.186 513.308 697.303 510.674C700.431 508.045 703.309 505.91 705.928 504.273C708.556 502.627 710.208 502.05 710.873 502.549ZM671.182 448.581C667.41 448.903 665.036 447.178 664.054 443.406C663.223 440.112 663.545 437.769 665.031 436.382C666.511 434.985 668.646 434.2 671.431 434.034C673.411 433.868 675.135 434.278 676.606 435.26C678.086 436.247 679.151 437.972 679.806 440.434C679.972 443.235 679.229 445.209 677.582 446.357C675.946 447.51 673.811 448.248 671.182 448.581Z" fill="#E6C068"/>
<path d="M842.206 500.325C843.188 500.98 843.765 501.634 843.931 502.299C844.097 502.954 843.972 503.567 843.557 504.149C843.141 504.72 842.689 505.25 842.206 505.749C841.541 506.403 841.125 506.892 840.959 507.224C827.327 528.255 808.027 545.825 783.063 559.946C780.429 561.426 777.063 562.169 772.964 562.169H772.465C768.351 562.169 765.223 561.099 763.093 558.969C760.791 556.834 759.643 553.633 759.643 549.368C759.643 545.586 760.381 542.178 761.867 539.144C763.348 536.099 764.906 533.18 766.543 530.395L769.016 526.447C769.514 525.465 770.044 524.483 770.616 523.496C771.198 522.498 771.727 521.511 772.216 520.524L772.465 519.797C772.798 519.132 773.078 518.311 773.317 517.324C773.567 516.342 773.115 515.277 771.966 514.124C770.647 512.809 769.088 512.149 767.291 512.149C766.626 512.149 765.883 512.316 765.067 512.648C761.784 513.303 758.542 514.082 755.342 514.996C752.141 515.9 748.889 516.841 745.595 517.823C741.491 519.293 737.512 521.018 733.646 522.997C729.792 524.966 726.061 527.018 722.445 529.148C720.793 529.979 719.188 530.847 717.624 531.746C716.071 532.65 714.471 533.507 712.824 534.323L711.847 534.821C711.182 535.32 710.439 535.736 709.624 536.068C708.803 536.39 707.987 536.546 707.171 536.546C705.691 536.546 704.127 535.892 702.475 534.572C700.677 532.941 699.773 531.424 699.773 530.021C699.773 528.623 699.94 527.184 700.272 525.699L700.501 524.722C703.467 511.245 708.481 499.255 715.546 488.75L716.024 488.002C716.357 487.353 716.762 486.745 717.25 486.173C717.749 485.591 718.331 485.3 718.996 485.3C719.479 485.3 719.973 485.461 720.471 485.778C721.619 486.277 722.362 486.937 722.695 487.753C723.51 489.405 723.547 491.337 722.799 493.55C722.061 495.769 721.287 497.618 720.471 499.099C719.973 500.086 719.723 500.735 719.723 501.052L711.099 523.496C710.933 523.818 710.767 524.348 710.6 525.096C710.444 525.834 710.694 526.447 711.348 526.945C712.013 527.434 712.834 527.673 713.821 527.673C714.803 527.673 715.951 527.475 717.271 527.07C718.585 526.655 719.484 526.28 719.973 525.948C720.788 525.615 721.521 525.252 722.175 524.847C722.84 524.431 723.505 523.984 724.17 523.496C724.986 522.831 725.76 522.259 726.498 521.771C727.246 521.272 728.025 520.857 728.846 520.524C731.475 519.21 734.145 517.978 736.847 516.825C739.559 515.677 742.317 514.529 745.117 513.375C751.85 510.591 758.173 508.783 764.09 507.952C765.072 507.801 765.971 507.723 766.792 507.723C771.073 507.723 774.439 509.115 776.892 511.9C779.687 515.017 780.429 518.882 779.115 523.496C778.46 526.28 777.603 528.992 776.538 531.621C775.468 534.255 774.439 536.879 773.442 539.497C772.787 540.983 772.174 542.453 771.592 543.923C771.021 545.404 770.413 546.885 769.764 548.371L769.514 549.368C769.016 550.184 768.683 551.166 768.517 552.319C768.351 553.467 768.766 554.532 769.764 555.519C771.062 556.834 772.538 557.493 774.19 557.493C774.839 557.493 775.489 557.41 776.143 557.244C776.808 557.078 777.473 556.912 778.138 556.745C785.853 554.444 792.586 551.036 798.337 546.521C804.083 542.001 809.258 537.45 813.861 532.847C817.643 529.065 821.706 524.836 826.059 520.15C830.408 515.469 834.065 510.175 837.032 504.273L837.51 503.775C837.842 502.959 838.289 502.102 838.86 501.198C839.442 500.283 840.138 499.826 840.959 499.826C841.292 499.826 841.707 499.993 842.206 500.325Z" fill="#E6C068"/>
</svg>
