<svg width="25" height="20" viewBox="0 0 25 20" fill="none" xmlns="http://www.w3.org/2000/svg">
<path d="M16.9404 19C16.4738 19 16.0198 18.9543 15.5784 18.863C15.1371 18.7717 14.7078 18.6423 14.2904 18.475C15.2738 17.575 16.0448 16.571 16.6034 15.463C17.1621 14.355 17.4411 13.2007 17.4404 12C17.4398 10.7993 17.1608 9.645 16.6034 8.537C16.0461 7.429 15.2751 6.425 14.2904 5.525C14.7071 5.35833 15.1364 5.22933 15.5784 5.138C16.0204 5.04667 16.4744 5.00067 16.9404 5C18.8904 5 20.5448 5.67933 21.9034 7.038C23.2621 8.39667 23.9411 10.0507 23.9404 12C23.9398 13.9493 23.2608 15.6037 21.9034 16.963C20.5461 18.3223 18.8918 19.0013 16.9404 19ZM12.9404 17.75C12.0238 17.1167 11.2948 16.3 10.7534 15.3C10.2121 14.3 9.9411 13.2 9.94043 12C9.93976 10.8 10.2108 9.7 10.7534 8.7C11.2961 7.7 12.0251 6.88333 12.9404 6.25C13.8571 6.88333 14.5864 7.7 15.1284 8.7C15.6704 9.7 15.9411 10.8 15.9404 12C15.9398 13.2 15.6691 14.3 15.1284 15.3C14.5878 16.3 13.8584 17.1167 12.9404 17.75ZM8.94043 19C6.99043 19 5.33643 18.321 3.97843 16.963C2.62043 15.605 1.9411 13.9507 1.94043 12C1.93976 10.0493 2.6191 8.39533 3.97843 7.038C5.33776 5.68067 6.99176 5.00133 8.94043 5C9.4071 5 9.86143 5.046 10.3034 5.138C10.7454 5.23 11.1744 5.359 11.5904 5.525C10.6071 6.425 9.83643 7.42933 9.27843 8.538C8.72043 9.64667 8.4411 10.8007 8.44043 12C8.44043 13.3167 8.71143 14.5377 9.25343 15.663C9.79543 16.7883 10.5411 17.7423 11.4904 18.525C11.0904 18.675 10.6781 18.7917 10.2534 18.875C9.82876 18.9583 9.3911 19 8.94043 19Z" fill="#1A1414"/>
</svg>
