<svg width="22" height="14" viewBox="0 0 22 14" stroke="black"  fill="none" xmlns="http://www.w3.org/2000/svg">
<path d="M15 14C14.5333 14 14.0793 13.9543 13.638 13.863C13.1967 13.7717 12.7673 13.6423 12.35 13.475C13.3333 12.575 14.1043 11.571 14.663 10.463C15.2217 9.355 15.5007 8.20067 15.5 7C15.4993 5.79933 15.2203 4.645 14.663 3.537C14.1057 2.429 13.3347 1.425 12.35 0.525C12.7667 0.358333 13.196 0.229333 13.638 0.138C14.08 0.0466667 14.534 0.000666667 15 0C16.95 0 18.6043 0.679333 19.963 2.038C21.3217 3.39667 22.0007 5.05067 22 7C21.9993 8.94933 21.3203 10.6037 19.963 11.963C18.6057 13.3223 16.9513 14.0013 15 14ZM11 12.75C10.0833 12.1167 9.35433 11.3 8.813 10.3C8.27167 9.3 8.00067 8.2 8 7C7.99933 5.8 8.27033 4.7 8.813 3.7C9.35567 2.7 10.0847 1.88333 11 1.25C11.9167 1.88333 12.646 2.7 13.188 3.7C13.73 4.7 14.0007 5.8 14 7C13.9993 8.2 13.7287 9.3 13.188 10.3C12.6473 11.3 11.918 12.1167 11 12.75ZM7 14C5.05 14 3.396 13.321 2.038 11.963C0.680001 10.605 0.000667157 8.95067 4.90196e-07 7C-0.000666176 5.04933 0.678667 3.39533 2.038 2.038C3.39733 0.680667 5.05133 0.00133333 7 0C7.46667 0 7.921 0.046 8.363 0.138C8.805 0.23 9.234 0.359 9.65 0.525C8.66667 1.425 7.896 2.42933 7.338 3.538C6.78 4.64667 6.50067 5.80067 6.5 7C6.5 8.31667 6.771 9.53767 7.313 10.663C7.855 11.7883 8.60067 12.7423 9.55 13.525C9.15 13.675 8.73767 13.7917 8.313 13.875C7.88833 13.9583 7.45067 14 7 14Z"   fill="white" />
</svg>
